<svg xmlns="http://www.w3.org/2000/svg" xmlns:xlink="http://www.w3.org/1999/xlink" width="500" zoomAndPan="magnify" viewBox="0 0 375 374.999991" height="500" preserveAspectRatio="xMidYMid meet" version="1.0"><defs><g/></defs><g fill="#000000" fill-opacity="1"><g transform="translate(151.44647, 200.999987)"><g><path d="M 13.84375 -20.421875 L 9.234375 -20.421875 L 9.234375 0 L 5.8125 0 L 5.8125 -20.421875 L 1.203125 -20.421875 L 1.203125 -23.828125 L 13.84375 -23.828125 Z M 13.84375 -20.421875 "/></g></g></g><g fill="#000000" fill-opacity="1"><g transform="translate(166.4945, 200.999987)"><g><path d="M 10.609375 -4.125 L 5.296875 -4.15625 L 4.609375 0 L 1.203125 0 L 5.1875 -23.828125 L 10.734375 -23.828125 L 14.71875 0 L 11.296875 0 Z M 10.125 -6.90625 L 7.9375 -19.9375 L 5.78125 -6.90625 Z M 10.125 -6.90625 "/></g></g></g><g fill="#000000" fill-opacity="1"><g transform="translate(182.406535, 200.999987)"><g><path d="M 18.3125 -23.828125 L 18.3125 0 L 14.875 0 L 14.875 -16.921875 L 9.765625 -8.59375 L 4.609375 -16.984375 L 4.609375 0 L 1.203125 0 L 1.203125 -23.828125 L 4.609375 -23.828125 L 4.609375 -22.375 L 9.765625 -13.96875 L 14.875 -22.296875 L 14.875 -23.828125 Z M 18.3125 -23.828125 "/></g></g></g><g fill="#000000" fill-opacity="1"><g transform="translate(201.918573, 200.999987)"><g><path d="M 10.609375 -4.125 L 5.296875 -4.15625 L 4.609375 0 L 1.203125 0 L 5.1875 -23.828125 L 10.734375 -23.828125 L 14.71875 0 L 11.296875 0 Z M 10.125 -6.90625 L 7.9375 -19.9375 L 5.78125 -6.90625 Z M 10.125 -6.90625 "/></g></g></g><g fill="#000000" fill-opacity="1"><g transform="translate(217.830609, 200.999987)"><g><path d="M 14.765625 -23.828125 L 14.765625 0 L 11.328125 0 L 11.328125 -5.046875 L 4.609375 -16.203125 L 4.609375 0 L 1.203125 0 L 1.203125 -23.828125 L 4.609375 -23.828125 L 4.609375 -21.578125 L 11.328125 -10.421875 L 11.328125 -23.828125 Z M 14.765625 -23.828125 "/></g></g></g><g fill="#000000" fill-opacity="1"><g transform="translate(244.878661, 200.999987)"><g><path d="M 11.234375 -14.328125 L 11.234375 -18.5 C 11.234375 -19.03125 11.050781 -19.488281 10.6875 -19.875 C 10.300781 -20.238281 9.84375 -20.421875 9.3125 -20.421875 L 6.53125 -20.421875 C 6 -20.421875 5.550781 -20.238281 5.1875 -19.875 C 4.800781 -19.488281 4.609375 -19.03125 4.609375 -18.5 L 4.609375 -16.734375 C 4.609375 -16.085938 4.789062 -15.570312 5.15625 -15.1875 C 5.53125 -14.789062 6.019531 -14.492188 6.625 -14.296875 L 12.125 -12.140625 C 12.882812 -11.890625 13.5 -11.453125 13.96875 -10.828125 C 14.425781 -10.179688 14.65625 -9.453125 14.65625 -8.640625 L 14.65625 -4.6875 C 14.65625 -4.03125 14.535156 -3.421875 14.296875 -2.859375 C 14.046875 -2.273438 13.710938 -1.78125 13.296875 -1.375 C 12.878906 -0.957031 12.382812 -0.628906 11.8125 -0.390625 C 11.226562 -0.128906 10.617188 0 9.984375 0 L 5.859375 0 C 5.210938 0 4.613281 -0.128906 4.0625 -0.390625 C 3.476562 -0.628906 2.976562 -0.957031 2.5625 -1.375 C 2.144531 -1.78125 1.816406 -2.273438 1.578125 -2.859375 C 1.328125 -3.421875 1.203125 -4.03125 1.203125 -4.6875 L 1.203125 -8.234375 L 4.609375 -6.40625 L 4.609375 -5.359375 C 4.609375 -4.804688 4.800781 -4.347656 5.1875 -3.984375 C 5.550781 -3.617188 6 -3.4375 6.53125 -3.4375 L 9.3125 -3.4375 C 9.84375 -3.4375 10.300781 -3.617188 10.6875 -3.984375 C 11.050781 -4.347656 11.234375 -4.804688 11.234375 -5.359375 L 11.234375 -7.15625 C 11.234375 -7.78125 11.054688 -8.289062 10.703125 -8.6875 C 10.335938 -9.082031 9.847656 -9.378906 9.234375 -9.578125 L 3.71875 -11.734375 C 2.945312 -11.992188 2.335938 -12.441406 1.890625 -13.078125 C 1.429688 -13.703125 1.203125 -14.414062 1.203125 -15.21875 L 1.203125 -19.171875 C 1.203125 -19.816406 1.328125 -20.425781 1.578125 -21 C 1.816406 -21.5625 2.144531 -22.050781 2.5625 -22.46875 C 2.976562 -22.882812 3.476562 -23.21875 4.0625 -23.46875 C 4.613281 -23.707031 5.210938 -23.828125 5.859375 -23.828125 L 9.984375 -23.828125 C 10.617188 -23.828125 11.226562 -23.707031 11.8125 -23.46875 C 12.382812 -23.21875 12.878906 -22.882812 13.296875 -22.46875 C 13.710938 -22.050781 14.046875 -21.5625 14.296875 -21 C 14.535156 -20.425781 14.65625 -19.816406 14.65625 -19.171875 L 14.65625 -16.15625 Z M 11.234375 -14.328125 "/></g></g></g><g fill="#000000" fill-opacity="1"><g transform="translate(260.742689, 200.999987)"><g><path d="M 10.609375 -4.125 L 5.296875 -4.15625 L 4.609375 0 L 1.203125 0 L 5.1875 -23.828125 L 10.734375 -23.828125 L 14.71875 0 L 11.296875 0 Z M 10.125 -6.90625 L 7.9375 -19.9375 L 5.78125 -6.90625 Z M 10.125 -6.90625 "/></g></g></g><g fill="#000000" fill-opacity="1"><g transform="translate(276.654725, 200.999987)"><g><path d="M 11.328125 0 L 7.484375 -6.390625 C 7.003906 -6.210938 6.507812 -6.035156 6 -5.859375 C 5.488281 -5.660156 5.023438 -5.492188 4.609375 -5.359375 L 4.609375 -0.03125 L 1.203125 -0.03125 L 1.203125 -23.859375 L 8.953125 -23.859375 C 9.734375 -23.859375 10.46875 -23.710938 11.15625 -23.421875 C 11.84375 -23.117188 12.453125 -22.710938 12.984375 -22.203125 C 13.492188 -21.671875 13.898438 -21.0625 14.203125 -20.375 C 14.492188 -19.6875 14.640625 -18.953125 14.640625 -18.171875 L 14.640625 -14.203125 C 14.640625 -12.609375 14.328125 -11.28125 13.703125 -10.21875 C 13.066406 -9.164062 12.078125 -8.300781 10.734375 -7.625 L 15.3125 0 Z M 4.609375 -20.421875 L 4.609375 -8.71875 C 5.003906 -8.820312 5.441406 -8.957031 5.921875 -9.125 C 6.398438 -9.28125 6.875 -9.4375 7.34375 -9.59375 C 7.8125 -9.757812 8.25 -9.921875 8.65625 -10.078125 C 9.0625 -10.234375 9.382812 -10.378906 9.625 -10.515625 C 9.882812 -10.660156 10.113281 -10.875 10.3125 -11.15625 C 10.519531 -11.425781 10.695312 -11.734375 10.84375 -12.078125 C 10.988281 -12.410156 11.101562 -12.757812 11.1875 -13.125 C 11.257812 -13.476562 11.296875 -13.804688 11.296875 -14.109375 L 11.296875 -18.265625 C 11.296875 -18.566406 11.242188 -18.851562 11.140625 -19.125 C 11.003906 -19.382812 10.832031 -19.609375 10.625 -19.796875 C 10.414062 -19.992188 10.175781 -20.144531 9.90625 -20.25 C 9.632812 -20.363281 9.347656 -20.421875 9.046875 -20.421875 Z M 4.609375 -20.421875 "/></g></g></g><g fill="#000000" fill-opacity="1"><g transform="translate(293.166763, 200.999987)"><g><path d="M 1.203125 0 L 1.203125 -23.828125 L 4.609375 -23.828125 L 4.609375 0 Z M 1.203125 0 "/></g></g></g><g fill="#1800ad" fill-opacity="1"><g transform="translate(155.360488, 221.983754)"><g><path d="M 3.796875 -12.515625 L 3.796875 -6.59375 L 9.703125 -12.515625 L 13.1875 -12.515625 L 7.03125 -6.359375 L 13.390625 0 L 9.875 0 L 5.1875 -4.703125 L 3.796875 -3.3125 L 3.796875 0 L 1.1875 0 L 1.1875 -12.515625 Z M 3.796875 -12.515625 "/></g></g></g><g fill="#1800ad" fill-opacity="1"><g transform="translate(172.894998, 221.983754)"><g><path d="M 7.15625 0.21875 C 6.257812 0.21875 5.414062 0.0507812 4.625 -0.28125 C 3.84375 -0.625 3.15625 -1.085938 2.5625 -1.671875 C 1.96875 -2.265625 1.503906 -2.953125 1.171875 -3.734375 C 0.835938 -4.523438 0.671875 -5.367188 0.671875 -6.265625 C 0.671875 -7.160156 0.835938 -7.992188 1.171875 -8.765625 C 1.503906 -9.546875 1.96875 -10.234375 2.5625 -10.828125 C 3.15625 -11.421875 3.84375 -11.882812 4.625 -12.21875 C 5.40625 -12.5625 6.242188 -12.734375 7.140625 -12.734375 C 8.035156 -12.734375 8.875 -12.5625 9.65625 -12.21875 C 10.4375 -11.882812 11.125 -11.421875 11.71875 -10.828125 C 12.3125 -10.234375 12.773438 -9.546875 13.109375 -8.765625 C 13.453125 -7.992188 13.625 -7.160156 13.625 -6.265625 C 13.625 -5.367188 13.453125 -4.523438 13.109375 -3.734375 C 12.773438 -2.953125 12.3125 -2.265625 11.71875 -1.671875 C 11.125 -1.085938 10.4375 -0.625 9.65625 -0.28125 C 8.882812 0.0507812 8.050781 0.21875 7.15625 0.21875 Z M 7.140625 -10.25 C 6.429688 -10.25 5.785156 -10.066406 5.203125 -9.703125 C 4.628906 -9.347656 4.175781 -8.867188 3.84375 -8.265625 C 3.507812 -7.671875 3.34375 -7.003906 3.34375 -6.265625 C 3.34375 -5.523438 3.507812 -4.851562 3.84375 -4.25 C 4.175781 -3.644531 4.628906 -3.164062 5.203125 -2.8125 C 5.785156 -2.457031 6.4375 -2.28125 7.15625 -2.28125 C 7.863281 -2.28125 8.503906 -2.457031 9.078125 -2.8125 C 9.648438 -3.164062 10.101562 -3.644531 10.4375 -4.25 C 10.78125 -4.851562 10.953125 -5.523438 10.953125 -6.265625 C 10.953125 -7.003906 10.78125 -7.671875 10.4375 -8.265625 C 10.09375 -8.867188 9.632812 -9.347656 9.0625 -9.703125 C 8.488281 -10.066406 7.847656 -10.25 7.140625 -10.25 Z M 7.140625 -10.25 "/></g></g></g><g fill="#1800ad" fill-opacity="1"><g transform="translate(191.437081, 221.983754)"><g><path d="M 4.203125 -5.546875 C 3.109375 -5.671875 2.238281 -6.050781 1.59375 -6.6875 C 0.945312 -7.320312 0.625 -8.132812 0.625 -9.125 C 0.625 -9.644531 0.734375 -10.125 0.953125 -10.5625 C 1.171875 -11.007812 1.457031 -11.394531 1.8125 -11.71875 C 2.164062 -12.050781 2.554688 -12.300781 2.984375 -12.46875 C 3.421875 -12.644531 3.859375 -12.734375 4.296875 -12.734375 C 4.921875 -12.734375 5.519531 -12.601562 6.09375 -12.34375 C 6.664062 -12.09375 7.191406 -11.6875 7.671875 -11.125 L 5.625 -9.625 C 5.457031 -9.800781 5.25 -9.945312 5 -10.0625 C 4.757812 -10.1875 4.523438 -10.25 4.296875 -10.25 C 3.953125 -10.25 3.671875 -10.148438 3.453125 -9.953125 C 3.242188 -9.753906 3.140625 -9.484375 3.140625 -9.140625 C 3.140625 -8.859375 3.265625 -8.601562 3.515625 -8.375 C 3.765625 -8.144531 4.222656 -8.007812 4.890625 -7.96875 C 5.609375 -7.914062 6.257812 -7.726562 6.84375 -7.40625 C 7.425781 -7.082031 7.894531 -6.628906 8.25 -6.046875 C 8.601562 -5.460938 8.78125 -4.769531 8.78125 -3.96875 C 8.78125 -3.15625 8.582031 -2.429688 8.1875 -1.796875 C 7.789062 -1.171875 7.269531 -0.675781 6.625 -0.3125 C 5.976562 0.0390625 5.285156 0.21875 4.546875 0.21875 C 3.835938 0.21875 3.132812 0.078125 2.4375 -0.203125 C 1.738281 -0.492188 1.09375 -0.960938 0.5 -1.609375 L 2.65625 -3.1875 C 2.945312 -2.832031 3.242188 -2.59375 3.546875 -2.46875 C 3.847656 -2.34375 4.179688 -2.28125 4.546875 -2.28125 C 4.972656 -2.28125 5.332031 -2.425781 5.625 -2.71875 C 5.925781 -3.019531 6.078125 -3.375 6.078125 -3.78125 C 6.078125 -4.28125 5.914062 -4.679688 5.59375 -4.984375 C 5.269531 -5.285156 4.804688 -5.472656 4.203125 -5.546875 Z M 4.203125 -5.546875 "/></g></g></g><g fill="#1800ad" fill-opacity="1"><g transform="translate(205.025245, 221.983754)"><g><path d="M 6.015625 0 L 3.40625 0 L 3.40625 -10.15625 L 0.3125 -10.15625 L 0.3125 -12.515625 L 9.3125 -12.515625 L 9.3125 -10.15625 L 6.015625 -10.15625 Z M 6.015625 0 "/></g></g></g><path fill="#132d5f" d="M 100.199219 165.0625 L 100.394531 165.0625 L 100.394531 165.304688 C 100.390625 167.890625 100.386719 170.476562 100.386719 173.066406 L 100.386719 173.363281 C 100.382812 180.246094 100.382812 180.246094 100.441406 187.128906 L 100.449219 187.628906 C 100.457031 188.125 100.464844 188.621094 100.46875 189.117188 L 100.472656 189.363281 C 100.523438 193.402344 100.5 197.445312 100.492188 201.484375 C 100.9375 201.382812 101.289062 201.179688 101.683594 200.953125 L 101.902344 200.832031 L 102.300781 200.609375 C 102.464844 200.511719 102.464844 200.511719 102.546875 200.3125 C 102.550781 200.074219 102.542969 199.84375 102.535156 199.605469 C 102.53125 199.457031 102.527344 199.304688 102.519531 199.15625 L 102.511719 198.910156 C 102.5 198.398438 102.492188 197.882812 102.488281 197.367188 C 102.480469 196.917969 102.472656 196.464844 102.453125 196.015625 C 102.363281 193.625 102.363281 193.625 102.644531 192.671875 C 102.914062 192.292969 103.207031 192.085938 103.621094 191.878906 C 103.886719 191.769531 104.15625 191.675781 104.429688 191.59375 C 104.890625 191.433594 105.296875 191.175781 105.710938 190.921875 L 105.996094 190.761719 C 106.746094 190.332031 107.488281 189.898438 108.234375 189.460938 C 108.945312 189.046875 109.65625 188.636719 110.371094 188.230469 C 111.199219 187.757812 112.023438 187.28125 112.847656 186.804688 C 113.050781 186.691406 113.25 186.574219 113.449219 186.460938 C 113.609375 186.367188 113.765625 186.273438 113.921875 186.175781 C 114.101562 186.0625 114.101562 186.0625 114.394531 185.917969 C 114.601562 185.925781 114.601562 185.925781 114.789062 186.015625 L 115.035156 186.125 C 115.703125 186.460938 116.351562 186.820312 117 187.195312 C 117.589844 187.535156 118.1875 187.867188 118.800781 188.167969 L 118.800781 188.363281 L 119.109375 188.4375 C 119.484375 188.546875 119.75 188.730469 120.074219 188.953125 C 120.238281 189.042969 120.398438 189.132812 120.5625 189.222656 C 121.132812 189.527344 121.695312 189.84375 122.257812 190.164062 L 122.558594 190.332031 C 123.027344 190.597656 123.5 190.867188 123.964844 191.136719 C 124.65625 191.53125 125.347656 191.90625 126.046875 192.28125 L 126.046875 165.0625 C 126.585938 165.167969 126.800781 165.328125 127.214844 165.664062 C 127.445312 165.867188 127.636719 166.074219 127.808594 166.332031 C 127.90625 166.617188 127.917969 166.792969 127.917969 167.085938 L 127.917969 167.351562 L 127.914062 167.625 L 127.914062 167.902344 C 127.910156 168.132812 127.910156 168.359375 127.910156 168.585938 L 128.128906 168.585938 C 128.824219 168.613281 129.328125 168.746094 129.925781 169.109375 C 130.332031 169.390625 130.632812 169.625 130.855469 170.078125 C 131.152344 170.828125 131.191406 171.5 131.171875 172.300781 L 131.167969 172.65625 C 131.160156 173.117188 131.152344 173.523438 131.042969 173.972656 L 127.910156 173.972656 L 127.910156 175.144531 C 128.425781 175.164062 128.945312 175.179688 129.464844 175.191406 C 129.640625 175.195312 129.820312 175.199219 129.996094 175.207031 C 130.816406 175.246094 130.816406 175.246094 131.628906 175.144531 C 131.890625 174.980469 132.003906 174.847656 132.15625 174.582031 C 132.226562 174.328125 132.242188 174.132812 132.214844 173.875 L 132.019531 173.578125 C 132.058594 173.21875 132.058594 173.21875 132.117188 172.894531 C 132.285156 172.835938 132.285156 172.835938 132.511719 172.796875 C 132.730469 172.84375 132.730469 172.84375 132.957031 172.925781 L 133.183594 173.003906 C 133.390625 173.089844 133.390625 173.089844 133.683594 173.285156 L 133.683594 173.480469 L 133.863281 173.542969 C 134.078125 173.675781 134.078125 173.675781 134.25 173.921875 C 134.40625 174.367188 134.429688 174.777344 134.371094 175.246094 C 134.269531 175.46875 134.269531 175.46875 134.175781 175.636719 L 134.390625 175.488281 C 134.664062 175.34375 134.664062 175.34375 134.941406 175.324219 L 135.152344 175.34375 C 135.253906 175.636719 135.253906 175.636719 135.183594 175.988281 C 135.148438 176.128906 135.113281 176.269531 135.074219 176.40625 L 135.023438 176.617188 C 134.949219 176.902344 134.875 177.167969 134.757812 177.433594 C 134.609375 177.84375 134.589844 178.269531 134.554688 178.703125 L 134.527344 178.976562 C 134.507812 179.203125 134.488281 179.425781 134.46875 179.652344 C 134.0625 179.65625 133.691406 179.648438 133.292969 179.550781 L 133.292969 180.433594 L 132.804688 180.628906 C 132.757812 181.0625 132.734375 181.472656 132.804688 181.902344 C 132.992188 182.125 133.164062 182.246094 133.417969 182.386719 L 133.585938 182.488281 L 133.585938 182.6875 L 133.773438 182.707031 L 133.980469 182.785156 C 134.082031 182.984375 134.082031 182.984375 134.152344 183.230469 L 134.222656 183.476562 L 134.273438 183.664062 C 135.011719 183.582031 135.011719 183.582031 135.660156 183.25 C 135.859375 182.988281 135.859375 182.988281 135.886719 182.671875 L 135.839844 182.390625 C 135.699219 182.222656 135.699219 182.222656 135.546875 182.097656 L 135.546875 181.902344 L 135.253906 181.902344 C 135.324219 181.453125 135.476562 181.054688 135.644531 180.628906 C 136.089844 180.683594 136.425781 180.804688 136.820312 181.019531 L 136.820312 181.21875 L 137.03125 181.273438 C 137.359375 181.4375 137.496094 181.601562 137.691406 181.90625 C 137.910156 182.304688 137.992188 182.671875 137.992188 183.125 C 137.957031 183.65625 137.839844 184.074219 137.601562 184.546875 L 137.808594 184.460938 L 138.347656 184.242188 C 138.582031 184.15625 138.582031 184.15625 138.777344 184.15625 L 138.777344 185.132812 L 138.582031 185.132812 L 138.582031 185.722656 L 138.386719 185.722656 L 138.355469 185.9375 C 138.289062 186.210938 138.289062 186.210938 138.140625 186.4375 C 137.976562 186.730469 137.953125 186.910156 137.945312 187.242188 L 137.933594 187.542969 L 137.925781 187.855469 L 137.917969 188.175781 C 137.90625 188.433594 137.902344 188.695312 137.894531 188.953125 C 137.433594 188.964844 137.058594 188.96875 136.621094 188.804688 L 136.394531 188.722656 L 136.230469 188.660156 L 136.234375 188.933594 C 136.238281 189.300781 136.234375 189.664062 136.230469 190.03125 C 136.234375 190.21875 136.234375 190.21875 136.238281 190.414062 C 136.132812 190.714844 136.132812 190.714844 135.9375 190.894531 C 135.78125 191.011719 135.621094 191.128906 135.460938 191.238281 C 135.246094 191.386719 135.246094 191.386719 135.128906 191.589844 C 135 191.949219 134.996094 192.300781 135.054688 192.671875 C 135.238281 192.914062 135.238281 192.914062 135.449219 193.066406 L 135.449219 193.261719 C 135.832031 193.378906 136.144531 193.457031 136.542969 193.464844 L 136.917969 193.554688 C 137.316406 194.070312 137.40625 194.785156 137.503906 195.414062 C 138.046875 195.398438 138.425781 195.328125 138.898438 195.054688 C 139.3125 194.78125 139.613281 194.578125 139.855469 194.140625 C 139.914062 193.742188 139.914062 193.371094 139.855469 192.96875 C 139.753906 192.710938 139.65625 192.589844 139.460938 192.378906 L 139.167969 192.183594 L 139.167969 191.988281 L 138.949219 191.953125 C 138.699219 191.894531 138.511719 191.816406 138.289062 191.695312 C 138.347656 191.128906 138.558594 190.644531 138.777344 190.128906 C 139.527344 190.222656 140.160156 190.539062 140.769531 190.976562 C 141.273438 191.429688 141.558594 191.96875 141.804688 192.597656 C 141.984375 193.222656 142.015625 193.796875 141.910156 194.4375 C 141.671875 195.074219 141.289062 195.601562 140.832031 196.101562 C 140.921875 196.066406 141.011719 196.03125 141.101562 195.992188 L 141.453125 195.855469 L 141.800781 195.71875 C 142.105469 195.609375 142.105469 195.609375 142.398438 195.609375 C 142.464844 196.304688 142.257812 196.925781 142.007812 197.570312 L 141.789062 197.863281 C 141.597656 198.140625 141.597656 198.140625 141.59375 198.421875 C 141.597656 198.636719 141.601562 198.855469 141.609375 199.070312 C 141.617188 199.464844 141.597656 199.851562 141.566406 200.242188 L 141.539062 200.621094 L 141.519531 200.898438 C 141.316406 200.90625 141.113281 200.914062 140.914062 200.917969 L 140.570312 200.925781 C 140.246094 200.898438 140.246094 200.898438 140.019531 200.75 C 139.773438 200.589844 139.773438 200.589844 139.542969 200.589844 C 139.292969 200.597656 139.046875 200.613281 138.796875 200.636719 C 138.707031 200.640625 138.621094 200.648438 138.53125 200.652344 C 138.320312 200.667969 138.109375 200.683594 137.894531 200.703125 C 137.890625 200.859375 137.886719 201.011719 137.882812 201.167969 L 137.875 201.429688 C 137.898438 201.691406 137.957031 201.847656 138.089844 202.074219 L 138.441406 202.089844 L 138.898438 202.109375 L 139.128906 202.121094 C 139.449219 202.136719 139.707031 202.152344 140.003906 202.273438 L 140.148438 202.367188 L 140.148438 202.5625 L 140.386719 202.644531 L 140.636719 202.757812 L 140.734375 203.050781 L 140.914062 203.136719 C 141.210938 203.289062 141.335938 203.460938 141.519531 203.738281 C 141.5625 204.0625 141.5625 204.0625 141.558594 204.429688 L 141.554688 204.625 C 141.554688 204.828125 141.546875 205.03125 141.542969 205.238281 C 141.542969 205.375 141.539062 205.515625 141.539062 205.65625 C 141.535156 205.996094 141.527344 206.335938 141.519531 206.675781 L 141.324219 206.675781 L 141.324219 206.871094 L 141.128906 206.988281 C 140.535156 207.34375 140.042969 207.847656 139.558594 208.339844 L 139.304688 208.546875 C 139.066406 208.792969 139.066406 208.792969 139.027344 209.011719 C 139.007812 209.238281 139.007812 209.457031 139.011719 209.683594 L 139.007812 209.9375 C 139.007812 210.21875 139.011719 210.496094 139.011719 210.777344 C 139.011719 210.972656 139.011719 211.164062 139.011719 211.359375 C 139.011719 211.765625 139.015625 212.171875 139.019531 212.578125 C 139.023438 213.101562 139.023438 213.621094 139.019531 214.144531 C 139.019531 214.546875 139.023438 214.945312 139.023438 215.347656 C 139.023438 215.539062 139.023438 215.730469 139.023438 215.925781 C 139.023438 216.191406 139.027344 216.460938 139.03125 216.730469 L 139.027344 216.972656 C 139.027344 217.214844 139.027344 217.214844 139.070312 217.542969 L 139.363281 217.738281 L 139.363281 217.9375 L 139.578125 217.996094 C 139.863281 218.136719 140.042969 218.289062 140.238281 218.539062 C 140.398438 218.8125 140.40625 219.058594 140.414062 219.367188 L 140.414062 219.613281 L 140.417969 219.867188 C 140.421875 220.132812 140.421875 220.398438 140.421875 220.664062 C 140.425781 220.847656 140.429688 221.027344 140.429688 221.210938 C 140.4375 221.652344 140.441406 222.09375 140.441406 222.539062 L 140.929688 222.539062 L 140.832031 222.34375 C 140.824219 222.167969 140.820312 221.996094 140.820312 221.824219 L 140.820312 220.25 C 140.832031 220.011719 140.847656 219.820312 140.929688 219.601562 C 141.199219 219.453125 141.199219 219.453125 141.550781 219.308594 C 142.253906 218.988281 142.730469 218.546875 143.25 217.984375 C 143.476562 217.738281 143.476562 217.738281 143.671875 217.640625 C 144.054688 217.636719 144.417969 217.679688 144.765625 217.835938 C 144.925781 217.925781 145.082031 218.027344 145.238281 218.132812 L 145.238281 218.328125 L 145.476562 218.40625 L 145.730469 218.523438 L 145.828125 218.816406 C 146.023438 218.9375 146.023438 218.9375 146.21875 219.011719 C 146.226562 219.558594 146.230469 220.105469 146.234375 220.652344 C 146.234375 220.839844 146.238281 221.027344 146.242188 221.210938 C 146.246094 221.480469 146.246094 221.746094 146.246094 222.015625 C 146.25 222.097656 146.25 222.179688 146.253906 222.265625 C 146.253906 222.648438 146.230469 222.90625 146.085938 223.265625 C 145.84375 223.644531 145.5625 223.917969 145.195312 224.179688 C 144.613281 224.460938 143.96875 224.410156 143.335938 224.40625 L 143.042969 224.40625 C 142.734375 224.40625 142.425781 224.40625 142.117188 224.40625 C 141.910156 224.402344 141.699219 224.402344 141.488281 224.402344 C 140.976562 224.402344 140.464844 224.402344 139.953125 224.398438 L 140.636719 225.769531 L 145.433594 225.867188 L 145.433594 227.628906 C 139.3125 227.640625 133.191406 227.652344 127.066406 227.660156 L 126.792969 227.664062 L 117.996094 227.675781 L 117.707031 227.675781 C 114.589844 227.683594 111.476562 227.6875 108.363281 227.695312 C 104.710938 227.699219 101.0625 227.707031 97.410156 227.710938 L 97.140625 227.710938 C 95.707031 227.714844 94.273438 227.71875 92.839844 227.71875 C 91.402344 227.722656 89.964844 227.726562 88.523438 227.726562 C 87.667969 227.730469 86.8125 227.730469 85.957031 227.730469 C 85.386719 227.734375 84.816406 227.734375 84.246094 227.734375 C 83.917969 227.734375 83.59375 227.734375 83.265625 227.738281 C 82.917969 227.738281 82.566406 227.738281 82.21875 227.738281 L 81.382812 227.738281 L 81.203125 227.726562 L 81.105469 227.628906 C 81.09375 227.351562 81.089844 227.074219 81.09375 226.796875 L 81.089844 226.5625 C 81.089844 226.363281 81.097656 226.164062 81.105469 225.964844 L 81.203125 225.867188 C 81.335938 225.863281 81.472656 225.863281 81.605469 225.867188 C 82.085938 225.882812 82.566406 225.890625 83.050781 225.894531 C 83.257812 225.894531 83.464844 225.902344 83.671875 225.910156 C 84.652344 225.957031 84.652344 225.957031 85.609375 225.769531 C 85.960938 225.484375 86.136719 225.113281 86.300781 224.695312 L 86.390625 224.398438 L 86.136719 224.398438 C 83.328125 224.414062 83.328125 224.414062 82.417969 224.367188 L 82.082031 224.351562 C 81.742188 224.292969 81.5 224.179688 81.203125 224.007812 C 80.824219 223.683594 80.605469 223.386719 80.417969 222.929688 C 80.371094 222.636719 80.359375 222.34375 80.351562 222.046875 L 80.34375 221.792969 C 80.34375 221.613281 80.339844 221.4375 80.335938 221.261719 C 80.332031 220.992188 80.320312 220.722656 80.308594 220.453125 C 80.285156 219.46875 80.285156 219.46875 80.417969 219.011719 C 80.722656 218.605469 81.054688 218.375 81.496094 218.132812 L 81.695312 217.996094 C 81.863281 217.882812 81.863281 217.882812 82.179688 217.738281 C 82.566406 217.714844 82.566406 217.714844 82.867188 217.738281 L 82.933594 217.921875 L 83.0625 218.132812 C 83.222656 218.199219 83.386719 218.265625 83.550781 218.328125 C 83.777344 218.523438 83.777344 218.523438 83.945312 218.71875 L 83.945312 218.914062 L 84.152344 218.996094 C 84.445312 219.117188 84.71875 219.257812 84.996094 219.410156 L 85.28125 219.566406 C 85.511719 219.699219 85.511719 219.699219 85.609375 219.796875 C 85.625 220 85.632812 220.203125 85.640625 220.40625 L 85.652344 220.78125 L 85.664062 221.171875 L 85.675781 221.566406 C 85.6875 221.890625 85.695312 222.214844 85.707031 222.539062 L 86.097656 222.539062 L 86.09375 222.191406 C 86.089844 221.761719 86.09375 221.335938 86.097656 220.90625 C 86.097656 220.722656 86.097656 220.539062 86.09375 220.355469 C 86.082031 219.128906 86.082031 219.128906 86.195312 218.621094 C 86.449219 218.179688 86.773438 217.964844 87.195312 217.703125 L 87.371094 217.542969 C 87.433594 217.332031 87.433594 217.332031 87.429688 217.09375 L 87.441406 216.820312 L 87.445312 216.527344 L 87.453125 216.257812 C 87.480469 215.253906 87.472656 214.242188 87.46875 213.234375 L 87.46875 212.953125 C 87.464844 212.375 87.460938 211.800781 87.453125 211.226562 C 87.453125 211.027344 87.449219 210.832031 87.449219 210.636719 C 87.449219 210.347656 87.445312 210.058594 87.441406 209.769531 L 87.441406 209.503906 C 87.4375 209.269531 87.425781 209.058594 87.371094 208.828125 C 87.148438 208.535156 87.148438 208.535156 86.882812 208.339844 L 86.714844 208.167969 C 86.332031 207.769531 85.925781 207.4375 85.484375 207.113281 L 85.316406 206.96875 L 85.316406 206.773438 L 84.921875 206.675781 C 84.914062 206.230469 84.910156 205.78125 84.90625 205.335938 L 84.898438 204.953125 L 84.894531 204.582031 L 84.890625 204.242188 C 84.925781 203.898438 85.015625 203.722656 85.214844 203.445312 C 85.664062 202.972656 86.164062 202.5 86.761719 202.226562 C 87.136719 202.132812 87.503906 202.152344 87.886719 202.175781 C 88.148438 202.179688 88.148438 202.179688 88.378906 202.121094 L 88.546875 201.976562 C 88.589844 201.714844 88.613281 201.492188 88.621094 201.230469 L 88.628906 201.019531 C 88.636719 200.847656 88.640625 200.675781 88.644531 200.507812 C 88.363281 200.496094 88.085938 200.488281 87.804688 200.480469 L 87.566406 200.472656 C 87.121094 200.460938 87.121094 200.460938 86.703125 200.597656 C 86.597656 200.667969 86.488281 200.738281 86.378906 200.8125 C 86.015625 200.980469 85.609375 200.925781 85.214844 200.898438 L 85.21875 200.671875 C 85.214844 200.328125 85.210938 199.980469 85.203125 199.636719 L 85.207031 199.28125 C 85.195312 198.808594 85.183594 198.402344 84.988281 197.964844 C 84.890625 197.800781 84.785156 197.640625 84.675781 197.484375 C 84.292969 196.925781 84.199219 196.269531 84.140625 195.609375 C 84.515625 195.648438 84.847656 195.707031 85.191406 195.863281 C 85.496094 196.023438 85.496094 196.023438 85.804688 196.003906 L 85.601562 195.796875 C 84.707031 194.867188 84.707031 194.867188 84.558594 194.269531 C 84.484375 193.617188 84.574219 192.972656 84.832031 192.371094 C 85.191406 191.636719 85.628906 191.101562 86.292969 190.617188 C 86.671875 190.394531 87.054688 190.1875 87.46875 190.03125 L 87.859375 190.03125 C 87.941406 190.269531 88.023438 190.511719 88.105469 190.75 L 88.175781 190.960938 C 88.351562 191.476562 88.351562 191.476562 88.351562 191.695312 L 88.152344 191.761719 C 87.753906 191.910156 87.421875 192.046875 87.082031 192.3125 C 86.839844 192.628906 86.703125 192.878906 86.585938 193.261719 C 86.574219 193.570312 86.601562 193.84375 86.683594 194.140625 C 86.875 194.425781 86.875 194.425781 87.078125 194.632812 L 87.078125 194.828125 L 87.308594 194.914062 C 87.566406 195.023438 87.566406 195.023438 87.761719 195.21875 C 87.992188 195.265625 88.226562 195.300781 88.460938 195.328125 L 88.839844 195.378906 L 89.132812 195.414062 L 89.125 195.105469 C 89.132812 194.777344 89.164062 194.527344 89.253906 194.214844 L 89.324219 193.96875 C 89.425781 193.75 89.425781 193.75 89.601562 193.582031 C 89.847656 193.4375 90.070312 193.378906 90.351562 193.316406 C 90.691406 193.230469 90.902344 193.15625 91.203125 192.96875 C 91.40625 192.777344 91.40625 192.777344 91.484375 192.476562 C 91.507812 192.195312 91.519531 191.96875 91.484375 191.695312 C 91.339844 191.417969 91.339844 191.417969 91.089844 191.203125 L 90.921875 191.113281 C 90.714844 190.996094 90.566406 190.894531 90.40625 190.714844 C 90.308594 190.363281 90.308594 190.019531 90.3125 189.65625 L 90.308594 189.367188 C 90.304688 189.128906 90.304688 188.894531 90.308594 188.660156 L 90.089844 188.722656 L 89.800781 188.804688 L 89.515625 188.886719 C 89.238281 188.949219 89.019531 188.988281 88.742188 188.953125 C 88.546875 188.660156 88.546875 188.660156 88.523438 188.433594 L 88.523438 188.171875 L 88.515625 187.878906 C 88.515625 187.679688 88.515625 187.480469 88.515625 187.277344 C 88.503906 186.640625 88.394531 186.195312 88.074219 185.640625 C 87.824219 185.183594 87.851562 184.761719 87.859375 184.253906 L 88.179688 184.34375 C 88.429688 184.414062 88.683594 184.484375 88.9375 184.546875 L 88.855469 184.402344 C 88.640625 184.003906 88.472656 183.636719 88.4375 183.183594 C 88.457031 182.785156 88.5625 182.453125 88.742188 182.097656 C 89.128906 181.5 89.628906 181.160156 90.246094 180.820312 L 90.503906 180.726562 L 90.992188 180.824219 L 91.289062 181.902344 L 91.054688 182.066406 C 90.792969 182.277344 90.792969 182.277344 90.644531 182.527344 L 90.601562 182.785156 C 90.71875 183.109375 90.71875 183.109375 90.992188 183.371094 C 91.28125 183.507812 91.570312 183.589844 91.875 183.664062 L 92.097656 183.722656 L 92.265625 183.761719 L 92.304688 183.570312 C 92.367188 183.292969 92.441406 183.042969 92.558594 182.785156 C 92.796875 182.546875 93.0625 182.378906 93.34375 182.195312 C 93.636719 181.96875 93.636719 181.96875 93.832031 181.707031 C 93.914062 181.417969 93.914062 181.417969 93.832031 181.121094 C 93.710938 180.980469 93.585938 180.839844 93.460938 180.707031 C 93.304688 180.472656 93.289062 180.28125 93.265625 180.003906 C 93.253906 179.855469 93.25 179.703125 93.246094 179.550781 L 93.042969 179.601562 C 92.714844 179.65625 92.402344 179.65625 92.070312 179.652344 C 91.984375 179.386719 91.960938 179.234375 91.960938 178.960938 C 91.941406 178.078125 91.886719 177.382812 91.492188 176.578125 C 91.328125 176.183594 91.351562 175.859375 91.386719 175.441406 L 92.265625 175.539062 L 92.148438 175.152344 C 92.074219 174.804688 92.0625 174.546875 92.15625 174.203125 C 92.292969 173.859375 92.46875 173.640625 92.742188 173.390625 C 93.027344 173.164062 93.28125 172.976562 93.636719 172.894531 C 93.867188 172.886719 94.09375 172.886719 94.324219 172.894531 C 94.375 173.1875 94.417969 173.476562 94.421875 173.777344 C 94.28125 174.027344 94.28125 174.027344 94.128906 174.167969 C 94.183594 174.292969 94.246094 174.421875 94.304688 174.546875 L 94.40625 174.761719 C 94.519531 174.980469 94.519531 174.980469 94.8125 175.144531 C 95.101562 175.171875 95.386719 175.183594 95.675781 175.1875 L 95.933594 175.191406 C 96.203125 175.199219 96.472656 175.203125 96.738281 175.207031 L 97.289062 175.21875 C 97.734375 175.226562 98.183594 175.238281 98.632812 175.246094 L 98.632812 174.070312 L 95.398438 174.070312 L 95.375 172.515625 L 95.363281 172.03125 C 95.359375 171.324219 95.378906 170.707031 95.675781 170.050781 C 95.890625 169.695312 96.144531 169.417969 96.476562 169.171875 C 97.171875 168.789062 97.75 168.671875 98.535156 168.683594 L 98.523438 168.324219 L 98.515625 167.84375 L 98.507812 167.609375 C 98.5 167.070312 98.578125 166.714844 98.828125 166.234375 C 99.15625 165.710938 99.675781 165.375 100.199219 165.0625 M 127.910156 170.347656 L 127.808594 170.445312 C 127.800781 170.722656 127.796875 171 127.796875 171.277344 L 127.796875 171.515625 C 127.796875 171.714844 127.804688 171.914062 127.808594 172.109375 L 127.910156 172.207031 C 128.136719 172.214844 128.371094 172.21875 128.601562 172.214844 L 128.984375 172.210938 L 129.277344 172.207031 C 129.285156 172.039062 129.289062 171.867188 129.292969 171.695312 L 129.296875 171.40625 C 129.277344 171.125 129.234375 170.972656 129.082031 170.738281 C 128.792969 170.515625 128.585938 170.445312 128.226562 170.371094 Z M 97.890625 170.515625 C 97.554688 170.613281 97.554688 170.613281 97.371094 170.832031 C 97.191406 171.15625 97.148438 171.417969 97.148438 171.78125 L 97.148438 172.015625 L 97.164062 172.207031 L 97.261719 172.308594 C 97.472656 172.316406 97.683594 172.320312 97.898438 172.320312 L 98.25 172.320312 L 98.535156 172.308594 L 98.632812 172.207031 C 98.636719 171.929688 98.640625 171.652344 98.636719 171.371094 L 98.636719 171.132812 C 98.632812 170.9375 98.632812 170.738281 98.632812 170.542969 C 98.332031 170.453125 98.214844 170.449219 97.890625 170.515625 M 94.027344 177.007812 C 93.871094 177.324219 93.917969 177.632812 93.929688 177.984375 L 94.027344 178.082031 C 94.171875 178.09375 94.316406 178.09375 94.460938 178.09375 L 95.355469 178.09375 C 95.683594 178.09375 96.007812 178.089844 96.335938 178.089844 C 96.558594 178.089844 96.777344 178.089844 97 178.089844 C 97.542969 178.085938 98.085938 178.085938 98.632812 178.082031 L 98.632812 177.007812 Z M 127.910156 177.007812 L 127.808594 177.105469 C 127.773438 177.613281 127.773438 177.613281 127.910156 178.082031 L 132.414062 178.082031 L 132.511719 177.203125 L 132.414062 177.007812 C 131.773438 177.003906 131.132812 177.003906 130.492188 177 C 130.277344 177 130.058594 177 129.839844 177 C 129.527344 177 129.214844 176.996094 128.902344 176.996094 L 128.089844 176.996094 Z M 127.910156 179.75 C 127.746094 180.074219 127.796875 180.4375 127.796875 180.796875 L 127.796875 181.050781 C 127.796875 181.230469 127.796875 181.40625 127.796875 181.585938 C 127.796875 181.859375 127.796875 182.132812 127.796875 182.40625 C 127.796875 182.578125 127.796875 182.753906 127.796875 182.925781 L 127.796875 183.175781 C 127.796875 183.371094 127.804688 183.566406 127.808594 183.761719 L 127.910156 183.859375 C 128.042969 183.871094 128.179688 183.878906 128.316406 183.882812 L 128.578125 183.886719 L 128.859375 183.890625 L 129.148438 183.898438 C 129.457031 183.90625 129.761719 183.910156 130.070312 183.917969 L 130.691406 183.929688 C 131.199219 183.9375 131.707031 183.949219 132.214844 183.957031 L 132.316406 183.761719 L 131.921875 183.664062 L 131.921875 183.46875 L 131.652344 183.308594 C 131.40625 183.148438 131.257812 183 131.109375 182.746094 C 130.851562 182.171875 130.835938 181.542969 130.847656 180.921875 C 130.886719 180.675781 130.953125 180.476562 131.042969 180.238281 L 131.042969 179.847656 C 129.996094 179.785156 128.957031 179.730469 127.910156 179.75 M 95.300781 179.945312 C 95.429688 180.34375 95.429688 180.34375 95.597656 180.726562 C 95.695312 182.066406 95.695312 182.066406 95.515625 182.65625 C 95.261719 183.089844 94.894531 183.367188 94.476562 183.644531 L 94.324219 183.761719 L 94.324219 183.957031 C 94.746094 183.960938 95.171875 183.964844 95.597656 183.964844 C 95.742188 183.964844 95.886719 183.964844 96.027344 183.964844 C 96.238281 183.96875 96.445312 183.96875 96.65625 183.96875 L 97.035156 183.96875 C 97.566406 183.957031 98.101562 183.90625 98.632812 183.859375 L 98.632812 179.847656 L 97.132812 179.839844 L 96.660156 179.835938 L 95.90625 179.835938 C 95.59375 179.832031 95.59375 179.832031 95.300781 179.945312 M 90.699219 185.625 L 90.699219 186.996094 C 91.601562 187.082031 92.488281 187.105469 93.394531 187.105469 L 93.820312 187.105469 C 94.117188 187.105469 94.414062 187.105469 94.707031 187.105469 C 95.085938 187.105469 95.46875 187.105469 95.847656 187.105469 C 96.140625 187.105469 96.433594 187.105469 96.726562 187.105469 C 96.867188 187.105469 97.003906 187.105469 97.144531 187.105469 C 97.339844 187.105469 97.535156 187.105469 97.730469 187.105469 L 98.066406 187.105469 C 98.347656 187.105469 98.347656 187.105469 98.632812 186.996094 C 98.632812 186.785156 98.636719 186.574219 98.636719 186.363281 L 98.640625 186.007812 L 98.632812 185.722656 L 98.535156 185.625 C 98.289062 185.613281 98.046875 185.609375 97.804688 185.613281 L 97.570312 185.613281 C 97.316406 185.613281 97.0625 185.613281 96.808594 185.613281 L 96.285156 185.613281 C 95.820312 185.613281 95.359375 185.617188 94.894531 185.617188 C 94.421875 185.617188 93.953125 185.617188 93.480469 185.617188 C 92.554688 185.621094 91.625 185.621094 90.699219 185.625 M 127.910156 185.625 C 127.78125 185.878906 127.796875 186.078125 127.796875 186.363281 L 127.796875 186.65625 L 127.808594 186.894531 L 127.910156 186.996094 C 128.15625 187.003906 128.398438 187.007812 128.644531 187.007812 L 128.878906 187.007812 C 129.136719 187.007812 129.394531 187.007812 129.648438 187.007812 C 129.828125 187.007812 130.003906 187.007812 130.183594 187.007812 C 130.554688 187.007812 130.925781 187.007812 131.300781 187.007812 C 131.777344 187.007812 132.253906 187.007812 132.734375 187.007812 C 133.101562 187.007812 133.46875 187.007812 133.832031 187.007812 C 134.011719 187.007812 134.1875 187.007812 134.363281 187.007812 C 134.609375 187.007812 134.855469 187.007812 135.101562 187.007812 L 135.324219 187.007812 C 135.496094 187.007812 135.667969 187 135.839844 186.996094 L 135.9375 186.894531 C 135.945312 186.699219 135.949219 186.503906 135.949219 186.308594 L 135.949219 185.984375 L 135.9375 185.722656 L 135.839844 185.625 C 135.59375 185.613281 135.347656 185.609375 135.101562 185.613281 L 134.867188 185.613281 C 134.609375 185.613281 134.351562 185.613281 134.09375 185.613281 L 133.5625 185.613281 C 133.09375 185.613281 132.625 185.617188 132.15625 185.617188 C 131.679688 185.617188 131.199219 185.617188 130.722656 185.617188 C 129.785156 185.621094 128.847656 185.621094 127.910156 185.625 M 113.515625 188.363281 C 113.375 188.453125 113.234375 188.542969 113.097656 188.640625 C 112.761719 188.871094 112.414062 189.070312 112.046875 189.246094 C 111.558594 189.503906 111.089844 189.78125 110.625 190.078125 C 110.242188 190.324219 109.851562 190.558594 109.449219 190.777344 C 109.144531 190.945312 108.839844 191.117188 108.539062 191.289062 L 108.359375 191.394531 C 107.996094 191.601562 107.632812 191.8125 107.273438 192.023438 C 106.691406 192.363281 106.105469 192.6875 105.515625 193.011719 L 105.300781 193.128906 L 105.109375 193.234375 L 104.898438 193.359375 L 104.597656 193.519531 L 104.308594 193.75 C 104.21875 194.058594 104.21875 194.058594 104.230469 194.414062 L 104.226562 194.613281 C 104.222656 194.832031 104.21875 195.050781 104.222656 195.265625 C 104.222656 195.417969 104.21875 195.570312 104.21875 195.722656 C 104.214844 196.039062 104.214844 196.359375 104.21875 196.675781 C 104.21875 197.082031 104.214844 197.488281 104.207031 197.894531 C 104.203125 198.210938 104.203125 198.523438 104.203125 198.835938 C 104.203125 198.984375 104.203125 199.136719 104.199219 199.285156 C 104.191406 199.738281 104.195312 200.164062 104.308594 200.605469 C 104.566406 200.902344 104.835938 201.042969 105.191406 201.191406 C 105.335938 201.269531 105.480469 201.347656 105.625 201.425781 C 105.941406 201.597656 105.941406 201.597656 106.171875 201.582031 L 106.269531 200.410156 L 106.757812 200.3125 C 106.960938 200.234375 106.960938 200.234375 107.15625 200.136719 L 107.382812 200.027344 L 107.621094 199.914062 L 107.871094 199.792969 C 108.449219 199.515625 109.027344 199.226562 109.601562 198.9375 C 110.101562 198.6875 110.601562 198.445312 111.101562 198.207031 L 111.320312 198.101562 C 111.828125 197.863281 111.828125 197.863281 112.046875 197.863281 L 112.144531 199.429688 L 111.753906 199.527344 C 111.0625 199.734375 110.441406 200.070312 109.804688 200.398438 C 109.53125 200.539062 109.257812 200.675781 108.984375 200.8125 C 108.296875 201.152344 107.621094 201.503906 106.953125 201.878906 C 107.179688 202.128906 107.179688 202.128906 107.445312 202.367188 L 107.738281 202.367188 L 107.738281 202.5625 C 107.894531 202.644531 108.050781 202.726562 108.207031 202.808594 L 108.472656 202.945312 C 108.71875 203.074219 108.71875 203.074219 109.011719 203.050781 L 109.011719 203.25 C 109.199219 203.347656 109.390625 203.445312 109.578125 203.542969 L 109.898438 203.707031 C 110.175781 203.855469 110.175781 203.855469 110.480469 203.835938 L 110.480469 204.03125 L 110.8125 204.1875 C 111.667969 204.582031 112.507812 204.984375 113.3125 205.480469 C 113.503906 205.613281 113.503906 205.613281 113.710938 205.597656 L 113.710938 188.363281 Z M 115.472656 188.363281 C 115.398438 189.4375 115.359375 190.503906 115.363281 191.578125 L 115.359375 192.019531 C 115.359375 192.421875 115.359375 192.820312 115.359375 193.222656 C 115.359375 193.65625 115.359375 194.089844 115.359375 194.523438 C 115.359375 195.371094 115.359375 196.222656 115.359375 197.070312 C 115.359375 197.757812 115.359375 198.445312 115.359375 199.136719 C 115.355469 201.089844 115.355469 203.046875 115.355469 205 L 115.355469 205.636719 C 115.355469 207.347656 115.355469 209.058594 115.355469 210.769531 C 115.351562 212.527344 115.351562 214.285156 115.351562 216.042969 C 115.351562 217.027344 115.351562 218.015625 115.351562 219 C 115.351562 219.839844 115.351562 220.675781 115.351562 221.515625 C 115.351562 221.945312 115.351562 222.371094 115.351562 222.800781 C 115.347656 223.191406 115.347656 223.582031 115.351562 223.972656 C 115.351562 224.113281 115.351562 224.257812 115.351562 224.398438 C 115.347656 224.589844 115.351562 224.78125 115.351562 224.976562 L 115.351562 225.300781 C 115.375 225.570312 115.429688 225.734375 115.570312 225.964844 C 116.011719 225.96875 116.457031 225.96875 116.898438 225.96875 C 117.050781 225.972656 117.199219 225.972656 117.351562 225.972656 C 117.566406 225.972656 117.785156 225.972656 118 225.976562 L 118.203125 225.976562 C 118.5625 225.980469 118.5625 225.980469 118.898438 225.867188 L 118.996094 220.285156 C 119.785156 220.527344 120.421875 220.742188 121.152344 221.070312 L 122.132812 221.363281 L 122.230469 225.867188 L 126.046875 225.867188 L 126.046875 194.339844 L 125.753906 194.238281 L 125.753906 194.042969 C 125.59375 193.960938 125.4375 193.878906 125.277344 193.800781 L 125.007812 193.660156 C 124.789062 193.542969 124.789062 193.542969 124.578125 193.554688 L 124.578125 193.359375 L 124.402344 193.273438 C 123.554688 192.863281 122.742188 192.402344 121.929688 191.929688 L 121.640625 191.765625 L 121.382812 191.617188 C 121.171875 191.507812 120.992188 191.445312 120.761719 191.402344 L 120.761719 191.203125 L 120.507812 191.085938 C 119.503906 190.601562 118.539062 190.054688 117.578125 189.488281 C 116.886719 189.082031 116.191406 188.714844 115.472656 188.363281 M 127.808594 188.855469 C 127.808594 189.734375 127.804688 190.613281 127.804688 191.492188 C 127.804688 191.902344 127.804688 192.308594 127.804688 192.71875 C 127.800781 193.109375 127.800781 193.503906 127.800781 193.898438 C 127.800781 194.046875 127.800781 194.199219 127.800781 194.347656 C 127.800781 194.558594 127.800781 194.769531 127.800781 194.980469 L 127.796875 195.34375 L 127.808594 195.609375 L 127.910156 195.707031 C 128.144531 195.71875 128.382812 195.722656 128.617188 195.722656 L 128.84375 195.722656 C 129.089844 195.722656 129.339844 195.722656 129.585938 195.722656 L 129.839844 195.722656 C 131.742188 195.71875 133.644531 195.671875 135.546875 195.609375 L 135.449219 195.121094 L 134.957031 195.023438 L 134.957031 194.828125 L 134.601562 194.675781 C 134.152344 194.449219 133.871094 194.164062 133.585938 193.75 C 133.296875 193.183594 133.269531 192.574219 133.277344 191.949219 C 133.308594 191.414062 133.402344 190.96875 133.667969 190.5 C 133.882812 190.226562 133.882812 190.226562 134.152344 189.949219 C 134.386719 189.671875 134.386719 189.671875 134.390625 189.414062 L 134.382812 189.179688 L 134.378906 188.9375 L 134.371094 188.757812 C 133.617188 188.753906 132.863281 188.753906 132.109375 188.75 C 131.757812 188.75 131.40625 188.75 131.058594 188.75 C 130.71875 188.75 130.378906 188.746094 130.042969 188.746094 C 129.851562 188.746094 129.660156 188.746094 129.46875 188.746094 L 128.800781 188.746094 C 128.464844 188.757812 128.140625 188.800781 127.808594 188.855469 M 97.136719 188.753906 L 96.800781 188.761719 L 96.441406 188.769531 L 96.070312 188.777344 C 95.75 188.78125 95.425781 188.789062 95.101562 188.796875 C 94.769531 188.800781 94.441406 188.808594 94.109375 188.816406 C 93.460938 188.828125 92.816406 188.839844 92.167969 188.855469 C 92.160156 189.082031 92.160156 189.3125 92.167969 189.539062 C 92.351562 189.839844 92.351562 189.839844 92.597656 190.117188 C 93.105469 190.742188 93.105469 190.742188 93.203125 191.148438 C 93.316406 191.972656 93.34375 192.867188 93.050781 193.652344 C 92.816406 193.921875 92.816406 193.921875 92.558594 194.140625 L 92.386719 194.332031 C 92.054688 194.640625 91.65625 194.78125 91.246094 194.957031 L 90.992188 195.121094 C 90.890625 195.371094 90.890625 195.371094 90.894531 195.609375 L 90.992188 195.707031 C 91.230469 195.71875 91.46875 195.722656 91.707031 195.71875 L 91.933594 195.71875 C 92.179688 195.71875 92.425781 195.71875 92.675781 195.71875 L 93.1875 195.71875 C 93.636719 195.71875 94.089844 195.71875 94.539062 195.714844 C 95.082031 195.714844 95.621094 195.714844 96.164062 195.714844 C 96.984375 195.710938 97.808594 195.710938 98.632812 195.707031 L 98.632812 188.855469 C 97.878906 188.769531 97.878906 188.769531 97.136719 188.753906 M 87.46875 197.472656 C 87.3125 198.347656 87.3125 198.347656 87.46875 198.746094 C 88.800781 198.835938 90.125 198.855469 91.460938 198.851562 L 92.085938 198.851562 C 92.625 198.851562 93.167969 198.851562 93.710938 198.847656 C 94.265625 198.847656 94.820312 198.847656 95.375 198.847656 C 96.460938 198.847656 97.546875 198.84375 98.632812 198.84375 L 98.632812 197.472656 Z M 127.910156 197.472656 L 127.808594 197.570312 C 127.800781 197.765625 127.796875 197.960938 127.796875 198.15625 L 127.796875 198.480469 L 127.808594 198.746094 L 127.910156 198.84375 C 128.054688 198.851562 128.199219 198.855469 128.347656 198.855469 L 128.636719 198.855469 L 128.953125 198.851562 L 129.285156 198.851562 C 129.652344 198.851562 130.015625 198.851562 130.382812 198.851562 L 131.136719 198.851562 C 131.734375 198.851562 132.332031 198.851562 132.929688 198.847656 C 133.609375 198.847656 134.289062 198.847656 134.96875 198.847656 C 136.371094 198.847656 137.769531 198.84375 139.167969 198.84375 L 139.167969 197.472656 C 137.703125 197.46875 136.234375 197.46875 134.769531 197.464844 C 134.089844 197.464844 133.40625 197.464844 132.726562 197.464844 C 132.070312 197.464844 131.414062 197.460938 130.757812 197.460938 C 130.507812 197.460938 130.253906 197.460938 130.003906 197.460938 C 129.652344 197.460938 129.304688 197.460938 128.953125 197.460938 L 128.097656 197.460938 Z M 90.40625 200.703125 L 90.308594 202.757812 L 90.113281 202.757812 L 90.089844 202.941406 L 90.015625 203.152344 C 89.882812 203.21875 89.753906 203.28125 89.621094 203.347656 L 89.523438 203.546875 L 89.425781 203.738281 C 89.21875 203.8125 89.21875 203.8125 89.035156 203.835938 L 89.035156 204.03125 L 88.742188 203.933594 C 88.5 203.917969 88.261719 203.90625 88.019531 203.902344 L 87.632812 203.890625 C 87.269531 203.910156 87.269531 203.910156 86.988281 204.09375 C 86.765625 204.3125 86.765625 204.3125 86.691406 204.613281 L 86.65625 204.925781 L 86.613281 205.238281 C 86.585938 205.488281 86.585938 205.488281 86.585938 205.695312 C 86.714844 205.828125 86.714844 205.828125 86.882812 205.960938 C 87.21875 206.238281 87.546875 206.527344 87.871094 206.820312 C 88.054688 206.96875 88.234375 207.066406 88.449219 207.164062 L 88.449219 207.359375 C 88.574219 207.460938 88.703125 207.5625 88.832031 207.65625 C 89.050781 207.84375 89.050781 207.84375 89.230469 208.046875 C 89.339844 208.363281 89.335938 208.660156 89.328125 208.996094 L 89.332031 209.277344 C 89.335938 209.582031 89.332031 209.886719 89.328125 210.191406 C 89.328125 210.402344 89.332031 210.613281 89.332031 210.828125 C 89.335938 211.382812 89.332031 211.941406 89.332031 212.496094 C 89.328125 213.066406 89.332031 213.632812 89.332031 214.203125 C 89.335938 215.316406 89.332031 216.429688 89.328125 217.542969 L 89.511719 217.582031 L 89.753906 217.632812 L 89.992188 217.683594 C 90.273438 217.757812 90.449219 217.875 90.667969 218.066406 L 90.890625 218.25 L 91.089844 218.425781 C 91.5 218.785156 91.902344 219.050781 92.378906 219.304688 C 92.558594 219.40625 92.558594 219.40625 92.660156 219.503906 C 92.753906 220.1875 92.785156 220.875 92.8125 221.566406 L 92.824219 221.878906 C 92.835938 222.132812 92.84375 222.382812 92.855469 222.636719 L 94.519531 222.636719 L 94.53125 222.011719 C 94.535156 221.808594 94.539062 221.609375 94.542969 221.40625 C 94.546875 221.269531 94.550781 221.128906 94.550781 220.992188 C 94.554688 220.789062 94.5625 220.589844 94.566406 220.390625 L 94.574219 220.023438 C 94.621094 219.671875 94.699219 219.492188 94.910156 219.207031 C 95.066406 219.046875 95.066406 219.046875 95.230469 218.910156 L 95.410156 218.757812 L 95.597656 218.601562 L 95.78125 218.445312 C 96.039062 218.226562 96.292969 218.027344 96.574219 217.839844 C 96.796875 217.808594 96.796875 217.808594 97.054688 217.796875 L 97.332031 217.785156 L 97.621094 217.777344 L 97.914062 217.765625 C 98.152344 217.757812 98.390625 217.746094 98.632812 217.738281 C 98.632812 215.519531 98.636719 213.300781 98.636719 211.082031 C 98.636719 210.050781 98.636719 209.019531 98.636719 207.988281 C 98.640625 207.089844 98.640625 206.195312 98.640625 205.296875 C 98.640625 204.820312 98.640625 204.34375 98.640625 203.867188 C 98.640625 203.421875 98.640625 202.972656 98.640625 202.527344 C 98.640625 202.363281 98.640625 202.195312 98.644531 202.03125 C 98.644531 201.808594 98.644531 201.585938 98.644531 201.359375 L 98.644531 200.980469 L 98.632812 200.703125 L 98.535156 200.605469 C 98.285156 200.59375 98.042969 200.589844 97.796875 200.59375 L 97.5625 200.589844 C 97.308594 200.589844 97.050781 200.589844 96.796875 200.589844 L 96.265625 200.589844 C 95.890625 200.589844 95.519531 200.589844 95.148438 200.59375 C 94.671875 200.59375 94.191406 200.59375 93.714844 200.589844 C 93.347656 200.589844 92.984375 200.589844 92.617188 200.589844 C 92.441406 200.589844 92.265625 200.589844 92.089844 200.589844 C 91.84375 200.589844 91.597656 200.589844 91.351562 200.59375 L 91.128906 200.589844 C 90.753906 200.585938 90.753906 200.585938 90.40625 200.703125 M 128.007812 200.605469 L 127.910156 200.703125 C 127.867188 201.144531 127.867188 201.589844 127.855469 202.035156 L 127.847656 202.261719 C 127.773438 205.003906 127.800781 207.753906 127.804688 210.5 C 127.804688 211.292969 127.804688 212.082031 127.804688 212.875 C 127.804688 214.496094 127.808594 216.117188 127.808594 217.738281 L 127.988281 217.742188 C 128.261719 217.746094 128.53125 217.757812 128.800781 217.765625 L 129.082031 217.769531 C 129.761719 217.792969 129.761719 217.792969 130.0625 217.925781 C 130.363281 218.117188 130.597656 218.363281 130.847656 218.621094 L 131.042969 218.621094 L 131.042969 218.816406 C 131.167969 218.886719 131.296875 218.957031 131.425781 219.023438 C 131.644531 219.179688 131.644531 219.179688 131.824219 219.40625 C 131.9375 219.9375 131.925781 220.460938 131.917969 221.003906 C 131.917969 221.21875 131.917969 221.4375 131.917969 221.65625 C 131.917969 221.855469 131.917969 222.050781 131.914062 222.25 L 131.921875 222.539062 L 132.019531 222.636719 C 132.300781 222.644531 132.578125 222.644531 132.859375 222.640625 L 133.097656 222.640625 C 133.292969 222.640625 133.488281 222.636719 133.683594 222.636719 L 133.691406 222.378906 C 133.703125 222.066406 133.710938 221.753906 133.722656 221.4375 C 133.726562 221.304688 133.730469 221.167969 133.734375 221.03125 C 133.738281 220.835938 133.746094 220.640625 133.753906 220.445312 L 133.761719 220.089844 C 133.785156 219.796875 133.785156 219.796875 133.882812 219.503906 C 134.105469 219.34375 134.332031 219.1875 134.566406 219.042969 C 135.097656 218.703125 135.566406 218.359375 136.003906 217.894531 C 136.246094 217.730469 136.402344 217.691406 136.6875 217.632812 C 136.765625 217.617188 136.84375 217.597656 136.925781 217.582031 L 137.113281 217.542969 L 137.113281 217.191406 C 137.113281 216.09375 137.117188 214.996094 137.125 213.898438 C 137.128906 213.332031 137.132812 212.769531 137.132812 212.203125 C 137.132812 211.660156 137.132812 211.117188 137.140625 210.570312 C 137.140625 210.363281 137.140625 210.15625 137.140625 209.949219 C 137.140625 209.65625 137.140625 209.363281 137.144531 209.074219 L 137.144531 208.8125 C 137.152344 208.242188 137.152344 208.242188 137.316406 207.960938 C 137.539062 207.6875 137.800781 207.453125 138.074219 207.226562 C 138.425781 206.925781 138.753906 206.605469 139.074219 206.273438 C 139.265625 206.089844 139.265625 206.089844 139.53125 205.910156 L 139.757812 205.695312 C 139.835938 205.394531 139.835938 205.394531 139.824219 205.066406 L 139.832031 204.734375 C 139.777344 204.402344 139.777344 204.402344 139.511719 204.140625 C 139.328125 204.003906 139.195312 203.9375 138.96875 203.898438 C 138.746094 203.886719 138.523438 203.890625 138.300781 203.898438 C 137.507812 203.886719 137.507812 203.886719 137.128906 203.703125 C 136.734375 203.363281 136.441406 202.945312 136.230469 202.464844 C 136.160156 202.140625 136.132812 201.820312 136.109375 201.492188 L 136.085938 201.234375 C 136.066406 201.023438 136.050781 200.8125 136.035156 200.605469 C 134.992188 200.601562 133.945312 200.601562 132.898438 200.601562 C 132.414062 200.597656 131.929688 200.597656 131.445312 200.597656 C 130.976562 200.597656 130.507812 200.597656 130.039062 200.59375 C 129.859375 200.59375 129.683594 200.59375 129.503906 200.59375 C 129.253906 200.59375 129.003906 200.59375 128.753906 200.59375 L 128.527344 200.59375 C 128.355469 200.59375 128.179688 200.597656 128.007812 200.605469 M 102.15625 202.660156 C 101.984375 202.753906 101.984375 202.753906 101.824219 202.886719 C 101.527344 203.117188 101.21875 203.277344 100.882812 203.445312 C 100.609375 203.585938 100.609375 203.585938 100.394531 203.835938 C 100.320312 204.128906 100.328125 204.414062 100.332031 204.714844 L 100.332031 204.988281 C 100.332031 205.289062 100.332031 205.589844 100.335938 205.890625 C 100.332031 206.691406 100.332031 207.496094 100.335938 208.296875 C 100.339844 208.910156 100.339844 209.523438 100.339844 210.136719 C 100.339844 211.167969 100.34375 212.195312 100.347656 213.226562 C 100.351562 214.417969 100.351562 215.609375 100.351562 216.800781 C 100.351562 218.066406 100.355469 219.335938 100.355469 220.601562 C 100.355469 220.96875 100.359375 221.332031 100.359375 221.699219 C 100.359375 222.273438 100.359375 222.847656 100.363281 223.421875 C 100.363281 223.632812 100.363281 223.84375 100.363281 224.054688 C 100.363281 224.339844 100.363281 224.628906 100.367188 224.914062 L 100.367188 225.171875 C 100.367188 225.371094 100.378906 225.570312 100.394531 225.769531 L 100.589844 225.964844 C 100.867188 225.984375 101.136719 225.992188 101.414062 225.988281 L 101.644531 225.992188 C 101.847656 225.992188 102.050781 225.980469 102.253906 225.964844 L 102.546875 225.769531 C 102.578125 225.460938 102.585938 225.175781 102.582031 224.867188 L 102.582031 224.582031 C 102.585938 224.261719 102.582031 223.945312 102.582031 223.625 L 102.582031 222.941406 C 102.582031 222.324219 102.578125 221.703125 102.578125 221.082031 C 102.574219 220.5 102.574219 219.921875 102.574219 219.339844 C 102.574219 218.1875 102.574219 217.035156 102.570312 215.882812 C 102.566406 214.347656 102.5625 212.8125 102.5625 211.277344 C 102.558594 208.40625 102.554688 205.53125 102.546875 202.660156 Z M 104.308594 202.660156 C 104.304688 206.019531 104.304688 209.378906 104.304688 212.738281 C 104.304688 213.859375 104.304688 214.976562 104.304688 216.097656 C 104.300781 217.246094 104.300781 218.394531 104.300781 219.542969 C 104.300781 220.1875 104.300781 220.835938 104.300781 221.480469 C 104.300781 222.085938 104.300781 222.691406 104.300781 223.300781 C 104.300781 223.523438 104.300781 223.746094 104.296875 223.96875 C 104.296875 224.273438 104.296875 224.578125 104.296875 224.878906 L 104.296875 225.152344 C 104.296875 225.359375 104.304688 225.5625 104.308594 225.769531 L 104.410156 225.867188 C 104.90625 225.957031 105.394531 225.980469 105.898438 225.976562 L 106.132812 225.976562 C 106.386719 225.980469 106.640625 225.980469 106.894531 225.976562 L 107.429688 225.980469 C 107.800781 225.980469 108.171875 225.976562 108.542969 225.976562 C 109.019531 225.976562 109.496094 225.976562 109.96875 225.976562 C 110.335938 225.980469 110.703125 225.980469 111.070312 225.976562 C 111.246094 225.976562 111.417969 225.976562 111.59375 225.980469 C 111.839844 225.980469 112.085938 225.976562 112.328125 225.976562 L 112.546875 225.980469 C 112.945312 225.976562 113.320312 225.9375 113.710938 225.867188 C 113.730469 223.503906 113.746094 221.136719 113.757812 218.773438 C 113.761719 217.675781 113.765625 216.578125 113.777344 215.480469 C 113.785156 214.523438 113.792969 213.566406 113.792969 212.609375 C 113.792969 212.101562 113.796875 211.597656 113.804688 211.089844 C 113.808594 210.613281 113.8125 210.136719 113.808594 209.660156 C 113.808594 209.484375 113.8125 209.308594 113.816406 209.132812 C 113.824219 208.628906 113.824219 208.148438 113.710938 207.65625 C 113.453125 207.347656 113.199219 207.207031 112.828125 207.066406 L 112.539062 206.902344 L 112.285156 206.773438 L 111.992188 206.621094 L 111.683594 206.46875 C 110.878906 206.054688 110.074219 205.632812 109.28125 205.195312 C 108.546875 204.792969 107.816406 204.398438 107.078125 204.007812 L 106.808594 203.867188 L 106.5625 203.738281 L 106.347656 203.621094 C 106.171875 203.527344 106.171875 203.527344 105.976562 203.542969 L 105.976562 203.347656 C 105.734375 203.230469 105.492188 203.117188 105.253906 203.003906 L 105.046875 202.90625 C 104.695312 202.722656 104.695312 202.722656 104.308594 202.660156 M 88.054688 219.40625 C 87.914062 219.691406 87.945312 219.941406 87.945312 220.257812 L 87.945312 220.453125 C 87.945312 220.589844 87.945312 220.726562 87.945312 220.863281 C 87.945312 221.074219 87.945312 221.285156 87.945312 221.496094 C 87.945312 221.628906 87.945312 221.761719 87.945312 221.894531 L 87.945312 222.261719 L 87.957031 222.539062 L 88.054688 222.636719 C 88.265625 222.644531 88.472656 222.648438 88.683594 222.648438 L 89.269531 222.648438 C 89.476562 222.648438 89.679688 222.648438 89.882812 222.648438 L 90.625 222.648438 L 90.894531 222.636719 L 90.992188 222.539062 C 91 222.398438 91.003906 222.261719 91.003906 222.121094 L 91.003906 221.867188 L 91 221.601562 L 91 221.335938 C 90.996094 221.117188 90.996094 220.898438 90.992188 220.675781 L 90.699219 220.578125 L 90.699219 220.382812 L 90.484375 220.253906 C 90.101562 220.023438 89.820312 219.722656 89.539062 219.375 L 89.328125 219.207031 C 88.863281 219.15625 88.488281 219.21875 88.054688 219.40625 M 136.597656 219.738281 C 136.496094 219.832031 136.394531 219.929688 136.292969 220.03125 C 136.132812 220.1875 136.132812 220.1875 135.824219 220.386719 C 135.664062 220.511719 135.664062 220.511719 135.546875 220.675781 C 135.472656 221.015625 135.488281 221.34375 135.507812 221.6875 L 135.515625 221.964844 C 135.523438 222.1875 135.535156 222.410156 135.546875 222.636719 C 135.945312 222.644531 136.347656 222.648438 136.75 222.652344 C 136.882812 222.652344 137.019531 222.65625 137.15625 222.65625 C 137.351562 222.660156 137.550781 222.664062 137.746094 222.664062 L 138.101562 222.667969 L 138.386719 222.636719 L 138.582031 222.34375 C 138.597656 222.0625 138.605469 221.792969 138.597656 221.515625 L 138.597656 221.277344 C 138.589844 220.652344 138.550781 220.027344 138.484375 219.40625 C 137.675781 219.234375 137.246094 219.203125 136.597656 219.738281 M 96.734375 219.800781 C 96.507812 220.039062 96.507812 220.039062 96.378906 220.382812 C 96.277344 221.136719 96.339844 221.878906 96.378906 222.636719 L 98.632812 222.636719 L 98.632812 219.503906 C 97.359375 219.390625 97.359375 219.390625 96.734375 219.800781 M 127.910156 219.503906 C 127.78125 219.757812 127.796875 219.949219 127.796875 220.234375 L 127.796875 221.871094 C 127.804688 222.183594 127.804688 222.183594 127.910156 222.636719 L 130.0625 222.636719 C 130.082031 222.257812 130.09375 221.882812 130.105469 221.503906 L 130.121094 221.179688 C 130.128906 220.871094 130.125 220.59375 130.0625 220.285156 C 129.875 219.996094 129.664062 219.789062 129.378906 219.601562 C 128.910156 219.449219 128.398438 219.492188 127.910156 219.503906 M 144.066406 219.699219 L 143.917969 219.90625 C 143.574219 220.300781 143.164062 220.640625 142.695312 220.875 L 142.695312 222.539062 L 143.472656 222.542969 L 143.714844 222.546875 C 143.898438 222.546875 144.078125 222.542969 144.261719 222.539062 L 144.359375 222.441406 C 144.367188 222.246094 144.367188 222.046875 144.367188 221.851562 L 144.367188 221.492188 L 144.363281 221.113281 L 144.363281 220.730469 C 144.363281 220.417969 144.359375 220.109375 144.359375 219.796875 Z M 82.277344 219.796875 C 82.277344 220.183594 82.273438 220.574219 82.273438 220.960938 C 82.273438 221.09375 82.273438 221.226562 82.273438 221.359375 C 82.269531 221.550781 82.269531 221.738281 82.269531 221.929688 L 82.269531 222.273438 L 82.277344 222.539062 L 82.378906 222.636719 C 82.609375 222.625 82.839844 222.613281 83.070312 222.59375 L 83.453125 222.5625 L 83.746094 222.539062 C 83.84375 221.703125 83.84375 221.703125 83.746094 220.875 C 83.359375 220.359375 82.847656 220.078125 82.277344 219.796875 M 88.449219 224.496094 C 88.21875 224.753906 88.21875 224.753906 88.0625 225.078125 L 87.886719 225.398438 C 87.75 225.652344 87.75 225.652344 87.761719 225.867188 L 98.632812 225.867188 L 98.632812 224.496094 C 98.300781 224.332031 97.929688 224.386719 97.570312 224.386719 L 97.296875 224.386719 C 97 224.386719 96.703125 224.386719 96.40625 224.386719 L 95.785156 224.386719 C 95.351562 224.386719 94.917969 224.386719 94.484375 224.386719 C 93.929688 224.386719 93.375 224.386719 92.816406 224.386719 C 92.390625 224.386719 91.964844 224.386719 91.535156 224.386719 C 91.332031 224.386719 91.128906 224.386719 90.921875 224.386719 C 90.636719 224.386719 90.347656 224.386719 90.0625 224.386719 L 89.808594 224.386719 C 89.347656 224.386719 88.898438 224.398438 88.449219 224.496094 M 127.910156 224.496094 C 127.90625 224.722656 127.902344 224.949219 127.902344 225.175781 L 127.898438 225.558594 L 127.910156 225.867188 L 128.007812 225.964844 C 128.1875 225.976562 128.371094 225.976562 128.554688 225.976562 L 128.914062 225.980469 L 129.308594 225.976562 C 129.445312 225.976562 129.582031 225.976562 129.71875 225.980469 C 130.082031 225.980469 130.449219 225.980469 130.816406 225.976562 C 131.039062 225.976562 131.265625 225.976562 131.492188 225.976562 C 133.855469 225.976562 136.21875 225.949219 138.582031 225.867188 C 138.511719 225.488281 138.417969 225.234375 138.203125 224.914062 L 138.050781 224.679688 L 137.894531 224.496094 C 137.574219 224.390625 137.34375 224.386719 137.003906 224.386719 L 135.796875 224.386719 C 135.5 224.386719 135.199219 224.386719 134.902344 224.386719 C 134.527344 224.386719 134.15625 224.386719 133.78125 224.386719 C 131.824219 224.382812 129.867188 224.417969 127.910156 224.496094 " fill-opacity="1" fill-rule="nonzero"/><path fill="#f0a62f" d="M 113.191406 176.191406 L 113.527344 176.195312 C 115.632812 176.226562 117.582031 176.800781 119.398438 177.871094 C 119.878906 178.167969 120.324219 178.507812 120.761719 178.867188 L 121.023438 179.085938 C 122.285156 180.171875 123.238281 181.601562 123.886719 183.132812 L 123.96875 183.316406 C 124.507812 184.671875 124.519531 186.042969 124.5 187.476562 C 124.5 187.660156 124.496094 187.839844 124.496094 188.023438 C 124.492188 188.464844 124.488281 188.902344 124.480469 189.34375 C 124.054688 189.289062 123.738281 189.191406 123.363281 188.984375 L 123.054688 188.820312 C 122.949219 188.761719 122.839844 188.703125 122.730469 188.640625 L 122.390625 188.453125 C 121.453125 187.941406 120.527344 187.40625 119.609375 186.863281 C 118.816406 186.398438 118.023438 185.945312 117.226562 185.492188 C 116.734375 185.210938 116.238281 184.929688 115.75 184.640625 L 115.53125 184.511719 C 115.402344 184.4375 115.277344 184.359375 115.148438 184.28125 C 114.96875 184.171875 114.96875 184.171875 114.691406 184.058594 C 114.292969 184.097656 114.011719 184.242188 113.671875 184.441406 L 113.363281 184.621094 L 113.03125 184.816406 C 112.917969 184.882812 112.800781 184.949219 112.6875 185.015625 C 112.339844 185.21875 111.996094 185.421875 111.652344 185.625 L 111.101562 185.949219 C 110.460938 186.324219 109.828125 186.703125 109.191406 187.082031 C 107.667969 187.984375 106.140625 188.878906 104.605469 189.761719 C 104.144531 190.027344 103.683594 190.292969 103.222656 190.5625 L 102.980469 190.699219 L 102.449219 191.007812 C 102.253906 190.8125 102.253906 190.8125 102.203125 190.628906 C 101.828125 188.128906 101.636719 185.4375 102.578125 183.035156 C 102.664062 182.851562 102.75 182.671875 102.839844 182.488281 L 103 182.167969 C 103.34375 181.5 103.722656 180.90625 104.210938 180.335938 L 104.417969 180.09375 C 105.691406 178.636719 107.21875 177.570312 109.050781 176.921875 C 109.304688 176.839844 109.558594 176.757812 109.8125 176.683594 L 110.046875 176.609375 C 111.089844 176.308594 112.109375 176.1875 113.191406 176.191406 M 104.605469 165.257812 C 105.039062 165.335938 105.304688 165.5625 105.644531 165.835938 C 106.382812 166.480469 106.890625 167.179688 107.246094 168.097656 C 107.617188 169.273438 107.546875 170.277344 107.289062 171.46875 C 107.09375 172.421875 107.03125 173.292969 107.332031 174.226562 C 107.429688 174.484375 107.519531 174.71875 107.660156 174.953125 C 107.738281 175.144531 107.738281 175.144531 107.75 175.390625 C 107.640625 175.636719 107.640625 175.636719 107.492188 175.742188 C 107.289062 175.855469 107.085938 175.953125 106.875 176.050781 C 106.007812 176.480469 105.269531 176.984375 104.542969 177.625 L 104.308594 177.789062 L 104.015625 177.691406 C 103.917969 177.472656 103.832031 177.253906 103.757812 177.023438 L 103.632812 176.65625 C 103.597656 176.546875 103.5625 176.433594 103.527344 176.320312 L 103.464844 176.128906 C 103.292969 175.1875 103.378906 174.207031 103.675781 173.304688 C 103.902344 172.671875 104.222656 172.089844 104.542969 171.503906 C 105.207031 170.285156 105.433594 169.164062 105.414062 167.792969 C 105.378906 166.871094 105.042969 166.054688 104.605469 165.257812 M 114.589844 163.789062 L 114.789062 163.789062 C 115.390625 164.878906 115.828125 165.859375 115.875 167.128906 C 115.832031 168.230469 115.417969 169.171875 114.839844 170.089844 C 114.6875 170.324219 114.535156 170.5625 114.378906 170.792969 C 113.902344 171.527344 113.539062 172.242188 113.472656 173.128906 C 113.464844 173.277344 113.460938 173.425781 113.453125 173.574219 L 113.441406 173.804688 C 113.433594 173.992188 113.425781 174.175781 113.417969 174.363281 L 113.121094 174.371094 C 112.050781 174.410156 111.035156 174.578125 109.992188 174.808594 C 109.761719 174.859375 109.535156 174.90625 109.304688 174.949219 C 109.121094 174.566406 109.089844 174.285156 109.121094 173.859375 C 109.214844 172.898438 109.539062 172.105469 110.078125 171.304688 C 110.675781 170.523438 111.417969 169.902344 112.179688 169.289062 C 113.085938 168.539062 113.761719 167.703125 114.234375 166.617188 C 114.5 165.910156 114.605469 165.296875 114.597656 164.539062 L 114.597656 164.320312 C 114.59375 164.144531 114.59375 163.964844 114.589844 163.789062 M 124.089844 166.628906 L 124.285156 166.628906 C 124.292969 166.980469 124.292969 167.332031 124.296875 167.6875 L 124.300781 167.984375 C 124.308594 168.871094 124.257812 169.769531 123.820312 170.554688 C 123.347656 171.269531 122.75 171.746094 122.046875 172.214844 C 120.535156 173.1875 120.535156 173.1875 119.46875 174.59375 C 119.402344 174.742188 119.339844 174.890625 119.277344 175.039062 C 119.195312 175.246094 119.097656 175.4375 118.996094 175.636719 L 118.839844 175.578125 C 117.605469 175.132812 116.375 174.707031 115.082031 174.460938 C 115.113281 173.941406 115.25 173.570312 115.515625 173.121094 C 115.996094 172.410156 116.5625 171.824219 117.332031 171.425781 C 118.039062 171.121094 118.761719 170.882812 119.492188 170.644531 L 119.804688 170.542969 C 120.007812 170.476562 120.210938 170.410156 120.417969 170.347656 C 121.488281 170 122.335938 169.511719 123.109375 168.683594 C 123.582031 168.058594 123.851562 167.367188 124.089844 166.628906 " fill-opacity="1" fill-rule="nonzero"/><path fill="#132d5f" d="M 117.136719 192.476562 C 118.117188 192.804688 118.117188 192.804688 118.453125 193.011719 C 118.851562 193.242188 119.257812 193.414062 119.6875 193.574219 C 119.878906 193.652344 119.878906 193.652344 119.976562 193.75 C 119.984375 193.890625 119.988281 194.027344 119.988281 194.167969 L 119.988281 194.722656 L 119.984375 195.019531 C 119.984375 195.332031 119.984375 195.648438 119.984375 195.960938 C 119.984375 196.171875 119.980469 196.382812 119.980469 196.59375 C 119.980469 197.117188 119.980469 197.636719 119.976562 198.15625 C 119.601562 198.09375 119.277344 197.984375 118.925781 197.835938 L 118.640625 197.714844 L 118.28125 197.5625 C 117.902344 197.402344 117.527344 197.242188 117.136719 197.078125 Z M 117.136719 212.941406 C 118 213.050781 118 213.050781 118.402344 213.238281 C 118.675781 213.367188 118.949219 213.476562 119.222656 213.589844 C 119.757812 213.8125 119.757812 213.8125 119.976562 213.921875 L 119.976562 218.328125 C 119.316406 218.21875 119.316406 218.21875 119.011719 218.101562 L 118.8125 218.027344 L 118.613281 217.949219 L 118.410156 217.871094 C 117.980469 217.707031 117.5625 217.53125 117.136719 217.347656 Z M 117.136719 206.1875 C 118.078125 206.394531 118.078125 206.394531 118.59375 206.675781 C 118.914062 206.828125 119.246094 206.914062 119.585938 207.007812 C 119.78125 207.066406 119.78125 207.066406 119.878906 207.164062 C 120.007812 208.082031 119.988281 208.996094 119.984375 209.917969 C 119.984375 210.078125 119.980469 210.242188 119.980469 210.402344 C 119.980469 210.792969 119.980469 211.179688 119.976562 211.570312 C 119.097656 211.375 119.097656 211.375 117.136719 210.59375 Z M 117.136719 199.332031 L 117.5625 199.472656 L 117.800781 199.550781 C 118.03125 199.628906 118.257812 199.722656 118.476562 199.828125 C 118.804688 199.976562 119.140625 200.105469 119.488281 200.214844 L 119.488281 200.410156 L 119.878906 200.410156 L 119.976562 204.816406 C 119.09375 204.703125 119.09375 204.703125 118.691406 204.539062 L 118.433594 204.433594 C 118.347656 204.398438 118.261719 204.363281 118.171875 204.324219 L 117.902344 204.214844 C 117.25 203.949219 117.25 203.949219 117.136719 203.835938 C 117.128906 203.695312 117.125 203.554688 117.125 203.410156 L 117.125 203.136719 L 117.128906 202.839844 L 117.128906 202.539062 C 117.128906 202.21875 117.128906 201.898438 117.132812 201.578125 C 117.132812 201.359375 117.132812 201.144531 117.132812 200.929688 C 117.132812 200.394531 117.136719 199.863281 117.136719 199.332031 M 121.445312 194.4375 C 122.914062 195.023438 122.914062 195.023438 124.1875 195.707031 L 124.1875 200.015625 C 123.558594 199.828125 123.011719 199.652344 122.429688 199.367188 C 121.949219 199.132812 121.949219 199.132812 121.445312 198.941406 Z M 121.445312 207.851562 C 121.585938 207.882812 121.730469 207.910156 121.871094 207.941406 L 122.109375 207.996094 C 122.839844 208.167969 123.527344 208.597656 124.1875 208.925781 L 124.1875 213.234375 C 123.542969 213.042969 122.9375 212.847656 122.320312 212.585938 L 122.097656 212.496094 C 121.558594 212.269531 121.558594 212.269531 121.445312 212.160156 C 121.4375 212.023438 121.433594 211.886719 121.433594 211.753906 L 121.433594 211.492188 L 121.4375 211.207031 L 121.4375 210.917969 C 121.4375 210.609375 121.4375 210.304688 121.441406 210 C 121.441406 209.792969 121.441406 209.585938 121.441406 209.378906 C 121.441406 208.867188 121.445312 208.359375 121.445312 207.851562 M 121.445312 201.191406 C 121.585938 201.238281 121.722656 201.285156 121.863281 201.328125 L 122.097656 201.40625 C 122.433594 201.523438 122.761719 201.652344 123.09375 201.785156 L 123.28125 201.863281 C 123.589844 201.984375 123.890625 202.121094 124.1875 202.269531 L 124.1875 206.578125 C 123.792969 206.5 123.503906 206.410156 123.140625 206.253906 C 122.671875 206.054688 122.199219 205.859375 121.726562 205.675781 C 121.542969 205.597656 121.542969 205.597656 121.445312 205.5 C 121.4375 205.363281 121.433594 205.230469 121.433594 205.09375 L 121.433594 204.832031 L 121.4375 204.546875 L 121.4375 204.257812 C 121.4375 203.953125 121.4375 203.648438 121.441406 203.339844 C 121.441406 203.132812 121.441406 202.925781 121.441406 202.71875 C 121.441406 202.210938 121.445312 201.699219 121.445312 201.191406 M 121.445312 214.507812 C 121.890625 214.597656 122.285156 214.726562 122.707031 214.886719 L 122.910156 214.964844 C 123.339844 215.128906 123.761719 215.304688 124.1875 215.488281 L 124.1875 219.699219 L 123.992188 219.796875 C 123.734375 219.71875 123.734375 219.71875 123.414062 219.589844 L 123.105469 219.46875 L 122.707031 219.3125 L 121.445312 218.816406 Z M 121.445312 214.507812 " fill-opacity="1" fill-rule="nonzero"/><path fill="#f0a62f" d="M 124.382812 174.558594 C 124.386719 175.164062 124.386719 175.769531 124.386719 176.371094 C 124.390625 176.578125 124.390625 176.785156 124.390625 176.988281 C 124.390625 177.285156 124.390625 177.582031 124.394531 177.878906 L 124.394531 178.15625 C 124.394531 178.566406 124.390625 178.953125 124.285156 179.355469 C 124.023438 179.4375 124.023438 179.4375 123.699219 179.453125 C 123.492188 179.285156 123.351562 179.140625 123.191406 178.933594 C 123.097656 178.824219 123.003906 178.714844 122.90625 178.605469 L 122.765625 178.441406 C 122.125 177.722656 121.363281 177.140625 120.566406 176.613281 C 120.605469 176.390625 120.648438 176.242188 120.785156 176.054688 C 121.546875 175.277344 122.4375 174.914062 123.476562 174.625 C 123.789062 174.558594 124.066406 174.554688 124.382812 174.558594 " fill-opacity="1" fill-rule="nonzero"/><path fill="#132d5f" d="M 112.144531 194.730469 L 112.144531 196.394531 C 110.820312 197.09375 109.492188 197.769531 108.140625 198.410156 C 107.644531 198.644531 107.15625 198.886719 106.671875 199.144531 C 106.464844 199.234375 106.464844 199.234375 106.171875 199.234375 L 106.171875 197.667969 C 107.382812 197.023438 108.605469 196.390625 109.835938 195.777344 C 110.097656 195.644531 110.363281 195.511719 110.628906 195.378906 L 111.136719 195.125 L 111.375 195.003906 C 111.925781 194.730469 111.925781 194.730469 112.144531 194.730469 M 112.144531 191.792969 L 112.144531 193.457031 L 111.5 193.773438 C 110.707031 194.171875 109.917969 194.582031 109.132812 194.992188 C 108.691406 195.226562 108.246094 195.457031 107.796875 195.679688 C 107.40625 195.871094 107.027344 196.082031 106.652344 196.304688 C 106.464844 196.394531 106.464844 196.394531 106.171875 196.394531 C 106.148438 196.144531 106.132812 195.894531 106.121094 195.640625 L 106.101562 195.425781 C 106.09375 195.207031 106.101562 195.039062 106.171875 194.828125 C 106.398438 194.601562 106.664062 194.476562 106.953125 194.339844 L 107.191406 194.214844 C 107.445312 194.085938 107.703125 193.957031 107.964844 193.832031 C 108.683594 193.472656 109.402344 193.109375 110.113281 192.734375 C 111.128906 192.195312 111.128906 192.195312 111.5625 191.976562 L 111.78125 191.863281 C 111.949219 191.792969 111.949219 191.792969 112.144531 191.792969 M 105.777344 217.445312 C 106.175781 217.519531 106.523438 217.632812 106.898438 217.78125 C 107.304688 217.945312 107.710938 218.09375 108.128906 218.230469 C 108.238281 218.757812 108.242188 219.269531 108.238281 219.808594 L 108.238281 220.085938 C 108.234375 220.742188 108.203125 221.394531 108.128906 222.046875 C 106.097656 221.484375 106.097656 221.484375 105.777344 221.167969 C 105.769531 220.894531 105.765625 220.617188 105.769531 220.34375 L 105.769531 220.09375 C 105.769531 219.828125 105.773438 219.566406 105.773438 219.300781 C 105.773438 219.121094 105.773438 218.941406 105.773438 218.765625 C 105.777344 218.324219 105.777344 217.886719 105.777344 217.445312 M 105.777344 206.089844 C 106.773438 206.417969 106.773438 206.417969 107.121094 206.578125 L 107.324219 206.667969 L 107.542969 206.773438 L 107.855469 206.890625 L 108.128906 207.066406 C 108.207031 207.363281 108.207031 207.363281 108.214844 207.710938 L 108.226562 208.082031 L 108.226562 208.4375 L 108.234375 208.699219 C 108.25 209.394531 108.183594 210.09375 108.128906 210.789062 C 107.324219 210.535156 106.570312 210.222656 105.777344 209.90625 Z M 109.402344 218.71875 C 110.53125 219.058594 110.53125 219.058594 111.074219 219.265625 L 111.402344 219.386719 L 111.652344 219.503906 C 111.8125 219.820312 111.765625 220.164062 111.761719 220.511719 L 111.761719 220.753906 C 111.761719 221.007812 111.757812 221.265625 111.757812 221.523438 C 111.757812 221.695312 111.757812 221.871094 111.757812 222.042969 C 111.753906 222.46875 111.753906 222.894531 111.753906 223.320312 C 111.164062 223.222656 111.164062 223.222656 109.402344 222.539062 Z M 105.777344 211.765625 C 106.867188 212.09375 106.867188 212.09375 107.347656 212.359375 C 107.597656 212.480469 107.867188 212.5625 108.128906 212.648438 L 108.128906 216.371094 C 107.246094 216.171875 107.246094 216.171875 105.777344 215.488281 Z M 109.402344 213.234375 C 110.382812 213.453125 110.382812 213.453125 110.859375 213.714844 C 111.148438 213.867188 111.453125 213.988281 111.753906 214.117188 L 111.753906 217.738281 C 111.351562 217.671875 111.082031 217.625 110.722656 217.484375 L 110.507812 217.398438 L 110.246094 217.292969 L 109.402344 216.957031 Z M 109.402344 207.65625 C 110.058594 207.765625 110.058594 207.765625 110.417969 207.984375 C 110.832031 208.238281 111.175781 208.355469 111.652344 208.535156 L 111.753906 212.355469 C 110.964844 212.039062 110.175781 211.71875 109.402344 211.375 Z M 109.402344 207.65625 " fill-opacity="1" fill-rule="nonzero"/><path fill="#f0a62f" d="M 102.15625 178.183594 L 102.351562 178.183594 C 102.5 178.332031 102.5 178.332031 102.65625 178.523438 L 102.816406 178.71875 L 102.941406 178.867188 C 102.851562 179.121094 102.769531 179.324219 102.597656 179.535156 L 102.449219 179.652344 L 102.253906 179.652344 C 102.152344 179.15625 102.144531 178.683594 102.15625 178.183594 " fill-opacity="1" fill-rule="nonzero"/></svg>