<svg xmlns="http://www.w3.org/2000/svg" xmlns:xlink="http://www.w3.org/1999/xlink" width="500" zoomAndPan="magnify" viewBox="0 0 375 374.999991" height="500" preserveAspectRatio="xMidYMid meet" version="1.0"><path fill="#132d5f" d="M 136.441406 64.628906 L 137.203125 64.628906 L 137.203125 65.574219 C 137.191406 75.671875 137.183594 85.765625 137.179688 95.863281 L 137.179688 97.03125 C 137.160156 123.886719 137.160156 123.886719 137.394531 150.738281 L 137.410156 151.71875 L 137.421875 152.695312 C 137.449219 154.632812 137.476562 156.566406 137.5 158.503906 L 137.511719 159.457031 C 137.714844 175.222656 137.617188 190.996094 137.585938 206.761719 C 139.324219 206.351562 140.695312 205.5625 142.242188 204.683594 L 143.09375 204.210938 L 144.648438 203.339844 C 145.292969 202.964844 145.292969 202.964844 145.609375 202.175781 C 145.613281 201.257812 145.597656 200.347656 145.5625 199.429688 C 145.542969 198.839844 145.523438 198.253906 145.503906 197.664062 L 145.476562 196.71875 C 145.417969 194.710938 145.398438 192.703125 145.375 190.695312 C 145.351562 188.933594 145.3125 187.171875 145.246094 185.414062 C 144.886719 176.09375 144.886719 176.09375 145.992188 172.375 C 147.046875 170.890625 148.175781 170.082031 149.800781 169.277344 C 150.835938 168.855469 151.886719 168.480469 152.957031 168.15625 C 154.757812 167.535156 156.332031 166.53125 157.957031 165.546875 L 159.074219 164.910156 C 161.992188 163.238281 164.894531 161.542969 167.792969 159.847656 C 170.566406 158.230469 173.347656 156.625 176.136719 155.039062 C 179.367188 153.195312 182.589844 151.339844 185.808594 149.476562 C 186.589844 149.027344 187.367188 148.578125 188.148438 148.128906 C 188.773438 147.769531 189.386719 147.402344 189.996094 147.019531 C 190.699219 146.585938 190.699219 146.585938 191.84375 146.011719 C 192.644531 146.046875 192.644531 146.046875 193.371094 146.394531 L 194.335938 146.824219 C 196.941406 148.136719 199.476562 149.535156 202 150.992188 C 204.3125 152.324219 206.644531 153.621094 209.035156 154.800781 L 209.035156 155.5625 L 210.230469 155.851562 C 211.699219 156.269531 212.742188 156.984375 214.003906 157.855469 C 214.636719 158.210938 215.273438 158.558594 215.910156 158.902344 C 218.132812 160.105469 220.332031 161.339844 222.527344 162.585938 L 223.691406 163.242188 C 225.527344 164.28125 227.359375 165.324219 229.1875 166.375 C 231.875 167.917969 234.578125 169.375 237.308594 170.847656 L 237.308594 64.628906 C 239.414062 65.046875 240.246094 65.667969 241.859375 66.980469 C 242.769531 67.78125 243.515625 68.585938 244.1875 69.59375 C 244.554688 70.695312 244.613281 71.382812 244.605469 72.523438 L 244.601562 73.558594 L 244.59375 74.632812 L 244.589844 75.722656 C 244.582031 76.609375 244.578125 77.496094 244.570312 78.382812 L 245.425781 78.386719 C 248.148438 78.488281 250.105469 79 252.4375 80.425781 C 254.035156 81.523438 255.199219 82.441406 256.074219 84.207031 C 257.234375 87.140625 257.375 89.746094 257.296875 92.878906 L 257.285156 94.273438 C 257.261719 96.070312 257.234375 97.648438 256.796875 99.398438 L 244.570312 99.398438 L 244.570312 103.980469 C 246.59375 104.058594 248.621094 104.113281 250.648438 104.152344 C 251.335938 104.164062 252.023438 104.1875 252.710938 104.214844 C 255.917969 104.367188 255.917969 104.367188 259.089844 103.980469 C 260.105469 103.328125 260.554688 102.820312 261.140625 101.773438 C 261.417969 100.792969 261.480469 100.027344 261.382812 99.015625 L 260.617188 97.867188 C 260.761719 96.460938 260.761719 96.460938 261 95.195312 C 261.652344 94.972656 261.652344 94.972656 262.527344 94.8125 C 263.386719 95 263.386719 95 264.269531 95.3125 L 265.15625 95.621094 C 265.964844 95.957031 265.964844 95.957031 267.113281 96.722656 L 267.113281 97.488281 L 267.804688 97.726562 C 268.640625 98.25 268.640625 98.25 269.308594 99.207031 C 269.929688 100.941406 270.019531 102.539062 269.785156 104.363281 C 269.398438 105.246094 269.398438 105.246094 269.023438 105.894531 L 269.859375 105.320312 C 270.933594 104.746094 270.933594 104.746094 272.007812 104.675781 L 272.84375 104.746094 C 273.226562 105.894531 273.226562 105.894531 272.957031 107.273438 C 272.816406 107.816406 272.675781 108.359375 272.535156 108.902344 L 272.328125 109.722656 C 272.039062 110.828125 271.761719 111.867188 271.289062 112.910156 C 270.722656 114.515625 270.648438 116.167969 270.503906 117.855469 L 270.402344 118.933594 C 270.324219 119.808594 270.246094 120.683594 270.167969 121.558594 C 268.578125 121.574219 267.132812 121.550781 265.582031 121.175781 L 265.582031 124.613281 L 263.671875 125.378906 C 263.492188 127.070312 263.402344 128.660156 263.671875 130.347656 C 264.402344 131.21875 265.074219 131.683594 266.0625 132.238281 L 266.730469 132.636719 L 266.730469 133.402344 L 267.453125 133.484375 L 268.257812 133.785156 C 268.660156 134.574219 268.660156 134.574219 268.925781 135.527344 L 269.207031 136.484375 L 269.40625 137.222656 C 272.285156 136.890625 272.285156 136.890625 274.824219 135.601562 C 275.597656 134.585938 275.597656 134.585938 275.710938 133.355469 L 275.519531 132.257812 C 274.976562 131.585938 274.976562 131.585938 274.371094 131.109375 L 274.371094 130.347656 L 273.226562 130.347656 C 273.5 128.585938 274.109375 127.03125 274.753906 125.378906 C 276.5 125.585938 277.800781 126.066406 279.339844 126.90625 L 279.339844 127.671875 L 280.175781 127.886719 C 281.441406 128.535156 281.980469 129.179688 282.75 130.355469 C 283.59375 131.910156 283.925781 133.347656 283.921875 135.117188 C 283.773438 137.183594 283.320312 138.8125 282.394531 140.664062 L 283.203125 140.328125 L 284.257812 139.898438 L 285.304688 139.46875 C 286.214844 139.132812 286.214844 139.132812 286.980469 139.132812 L 286.980469 142.953125 L 286.214844 142.953125 L 286.214844 145.246094 L 285.453125 145.246094 L 285.332031 146.082031 C 285.070312 147.15625 285.070312 147.15625 284.492188 148.046875 C 283.859375 149.1875 283.765625 149.882812 283.730469 151.175781 L 283.6875 152.359375 L 283.660156 153.582031 L 283.621094 154.824219 C 283.589844 155.835938 283.5625 156.84375 283.542969 157.855469 C 281.742188 157.902344 280.277344 157.921875 278.574219 157.28125 L 277.691406 156.960938 L 277.046875 156.710938 L 277.058594 157.785156 C 277.070312 159.210938 277.058594 160.632812 277.046875 162.058594 C 277.058594 162.804688 277.058594 162.804688 277.070312 163.5625 C 276.664062 164.734375 276.664062 164.734375 275.898438 165.433594 C 275.292969 165.894531 274.671875 166.339844 274.039062 166.769531 C 273.203125 167.355469 273.203125 167.355469 272.742188 168.144531 C 272.246094 169.542969 272.230469 170.914062 272.460938 172.375 C 273.167969 173.308594 273.167969 173.308594 273.988281 173.902344 L 273.988281 174.667969 C 275.480469 175.132812 276.703125 175.4375 278.265625 175.457031 L 279.722656 175.8125 C 281.277344 177.824219 281.625 180.621094 282.011719 183.074219 C 284.132812 183.003906 285.609375 182.726562 287.457031 181.664062 C 289.070312 180.597656 290.238281 179.808594 291.183594 178.105469 C 291.421875 176.539062 291.421875 175.089844 291.183594 173.519531 C 290.785156 172.515625 290.40625 172.046875 289.65625 171.230469 L 288.507812 170.464844 L 288.507812 169.699219 L 287.648438 169.558594 C 286.675781 169.335938 285.9375 169.035156 285.070312 168.554688 C 285.300781 166.355469 286.125 164.457031 286.980469 162.441406 C 289.902344 162.816406 292.371094 164.046875 294.753906 165.757812 C 296.726562 167.523438 297.839844 169.625 298.796875 172.074219 C 299.488281 174.511719 299.621094 176.75 299.207031 179.253906 C 298.28125 181.738281 296.789062 183.804688 295.003906 185.75 C 295.351562 185.609375 295.695312 185.472656 296.050781 185.328125 L 297.417969 184.792969 L 298.773438 184.253906 C 299.972656 183.835938 299.972656 183.835938 301.117188 183.835938 C 301.367188 186.539062 300.554688 188.972656 299.589844 191.480469 L 298.730469 192.625 C 297.992188 193.699219 297.992188 193.699219 297.980469 194.808594 C 297.984375 195.652344 298.003906 196.492188 298.03125 197.332031 C 298.0625 198.871094 297.984375 200.378906 297.871094 201.914062 L 297.761719 203.390625 L 297.679688 204.46875 C 296.890625 204.5 296.101562 204.523438 295.316406 204.542969 L 293.984375 204.582031 C 292.710938 204.46875 292.710938 204.46875 291.828125 203.886719 C 290.875 203.269531 290.875 203.269531 289.972656 203.265625 C 288.996094 203.296875 288.027344 203.359375 287.050781 203.445312 C 286.714844 203.464844 286.378906 203.488281 286.027344 203.515625 C 285.199219 203.574219 284.371094 203.636719 283.542969 203.707031 C 283.523438 204.3125 283.503906 204.914062 283.492188 205.519531 L 283.46875 206.542969 C 283.546875 207.570312 283.785156 208.175781 284.304688 209.054688 L 285.671875 209.113281 L 287.457031 209.199219 L 288.359375 209.234375 C 289.609375 209.296875 290.609375 209.359375 291.773438 209.835938 L 292.328125 210.203125 L 292.328125 210.964844 L 293.261719 211.277344 L 294.238281 211.730469 L 294.621094 212.875 L 295.316406 213.210938 C 296.472656 213.804688 296.964844 214.464844 297.679688 215.550781 C 297.851562 216.820312 297.851562 216.820312 297.828125 218.246094 L 297.820312 219.007812 C 297.8125 219.804688 297.792969 220.601562 297.773438 221.402344 C 297.765625 221.945312 297.761719 222.488281 297.753906 223.03125 C 297.734375 224.359375 297.710938 225.6875 297.679688 227.011719 L 296.914062 227.011719 L 296.914062 227.777344 L 296.152344 228.230469 C 293.839844 229.628906 291.914062 231.582031 290.039062 233.507812 L 289.042969 234.3125 C 288.105469 235.28125 288.105469 235.28125 287.949219 236.132812 C 287.882812 237.007812 287.878906 237.867188 287.890625 238.746094 L 287.886719 239.746094 C 287.882812 240.835938 287.890625 241.925781 287.898438 243.015625 C 287.902344 243.773438 287.902344 244.53125 287.898438 245.289062 C 287.902344 246.878906 287.90625 248.464844 287.917969 250.050781 C 287.933594 252.085938 287.9375 254.121094 287.933594 256.160156 C 287.933594 257.722656 287.9375 259.285156 287.945312 260.851562 C 287.945312 261.601562 287.949219 262.351562 287.949219 263.105469 C 287.949219 264.152344 287.957031 265.199219 287.964844 266.246094 L 287.964844 267.191406 C 287.964844 268.140625 287.964844 268.140625 288.125 269.425781 L 289.273438 270.1875 L 289.273438 270.953125 L 290.109375 271.191406 C 291.222656 271.738281 291.914062 272.335938 292.6875 273.300781 C 293.300781 274.371094 293.339844 275.324219 293.367188 276.542969 L 293.363281 277.492188 L 293.382812 278.484375 C 293.398438 279.523438 293.402344 280.5625 293.40625 281.601562 C 293.414062 282.3125 293.421875 283.019531 293.433594 283.726562 C 293.457031 285.453125 293.46875 287.183594 293.476562 288.910156 L 295.386719 288.910156 L 295.003906 288.144531 C 294.96875 287.472656 294.953125 286.796875 294.953125 286.121094 L 294.953125 284.894531 L 294.957031 283.609375 L 294.953125 282.332031 L 294.953125 281.105469 L 294.957031 279.980469 C 295 279.058594 295.058594 278.308594 295.386719 277.449219 C 296.433594 276.875 296.433594 276.875 297.796875 276.300781 C 300.554688 275.0625 302.402344 273.335938 304.429688 271.136719 C 305.320312 270.1875 305.320312 270.1875 306.085938 269.804688 C 307.566406 269.792969 308.984375 269.949219 310.34375 270.554688 C 310.976562 270.917969 311.589844 271.316406 312.199219 271.71875 L 312.199219 272.480469 L 313.128906 272.792969 L 314.109375 273.246094 L 314.492188 274.390625 C 315.253906 274.851562 315.253906 274.851562 316.019531 275.15625 C 316.046875 277.289062 316.066406 279.425781 316.082031 281.558594 C 316.085938 282.285156 316.09375 283.011719 316.105469 283.738281 C 316.121094 284.78125 316.125 285.828125 316.132812 286.871094 C 316.136719 287.195312 316.140625 287.515625 316.148438 287.847656 C 316.148438 289.339844 316.058594 290.339844 315.496094 291.742188 C 314.558594 293.230469 313.457031 294.289062 312.03125 295.308594 C 309.761719 296.417969 307.242188 296.222656 304.773438 296.207031 L 303.628906 296.207031 C 302.425781 296.203125 301.222656 296.199219 300.019531 296.195312 C 299.203125 296.191406 298.382812 296.191406 297.566406 296.1875 C 295.566406 296.183594 293.566406 296.179688 291.566406 296.171875 L 294.242188 301.519531 L 312.960938 301.902344 L 312.960938 308.777344 C 289.070312 308.820312 265.179688 308.863281 241.292969 308.902344 L 240.21875 308.90625 L 205.894531 308.964844 L 204.761719 308.964844 C 192.605469 308.984375 180.453125 309.007812 168.296875 309.027344 C 154.054688 309.054688 139.808594 309.078125 125.558594 309.101562 L 124.511719 309.101562 C 118.917969 309.113281 113.328125 309.121094 107.734375 309.132812 C 102.121094 309.144531 96.503906 309.152344 90.890625 309.160156 C 87.550781 309.164062 84.210938 309.171875 80.871094 309.179688 C 78.640625 309.183594 76.414062 309.1875 74.1875 309.191406 C 72.917969 309.191406 71.644531 309.191406 70.371094 309.195312 C 69.007812 309.199219 67.640625 309.203125 66.277344 309.203125 L 65.0625 309.207031 L 63.023438 309.207031 L 62.316406 309.160156 L 61.933594 308.777344 C 61.894531 307.695312 61.878906 306.613281 61.886719 305.53125 L 61.882812 304.605469 C 61.882812 303.832031 61.90625 303.058594 61.933594 302.285156 L 62.316406 301.902344 C 62.839844 301.882812 63.363281 301.890625 63.890625 301.90625 C 65.765625 301.960938 67.644531 301.988281 69.523438 302.003906 C 70.332031 302.015625 71.144531 302.035156 71.953125 302.066406 C 75.785156 302.253906 75.785156 302.253906 79.507812 301.519531 C 80.890625 300.402344 81.574219 298.953125 82.207031 297.324219 L 82.566406 296.171875 L 81.574219 296.175781 C 70.609375 296.234375 70.609375 296.234375 67.066406 296.050781 L 65.753906 295.984375 C 64.429688 295.757812 63.472656 295.3125 62.316406 294.640625 C 60.847656 293.378906 59.996094 292.226562 59.257812 290.4375 C 59.070312 289.292969 59.027344 288.15625 59 286.992188 L 58.972656 286 C 58.960938 285.308594 58.949219 284.617188 58.941406 283.925781 C 58.925781 282.875 58.878906 281.828125 58.832031 280.777344 C 58.742188 276.929688 58.742188 276.929688 59.257812 275.15625 C 60.445312 273.570312 61.742188 272.664062 63.460938 271.71875 L 64.238281 271.179688 C 64.894531 270.738281 64.894531 270.738281 66.136719 270.1875 C 67.640625 270.09375 67.640625 270.09375 68.8125 270.1875 L 69.074219 270.90625 L 69.574219 271.71875 C 70.207031 271.984375 70.84375 272.238281 71.484375 272.480469 C 72.371094 273.246094 72.371094 273.246094 73.015625 274.007812 L 73.015625 274.773438 L 73.832031 275.082031 C 74.976562 275.558594 76.035156 276.109375 77.121094 276.707031 L 78.238281 277.316406 C 79.128906 277.832031 79.128906 277.832031 79.507812 278.210938 C 79.570312 279.003906 79.605469 279.796875 79.628906 280.589844 L 79.679688 282.046875 L 79.722656 283.585938 L 79.773438 285.125 C 79.816406 286.386719 79.855469 287.648438 79.890625 288.910156 L 81.417969 288.910156 L 81.40625 287.554688 C 81.394531 285.886719 81.402344 284.21875 81.414062 282.550781 C 81.417969 281.828125 81.414062 281.109375 81.40625 280.386719 C 81.359375 275.613281 81.359375 275.613281 81.800781 273.628906 C 82.796875 271.902344 84.058594 271.070312 85.707031 270.039062 L 86.386719 269.425781 C 86.632812 268.601562 86.632812 268.601562 86.621094 267.671875 L 86.65625 266.589844 L 86.671875 265.460938 L 86.707031 264.410156 C 86.820312 260.480469 86.78125 256.542969 86.769531 252.613281 L 86.765625 251.503906 C 86.761719 249.257812 86.742188 247.011719 86.710938 244.765625 C 86.703125 244 86.695312 243.234375 86.695312 242.46875 C 86.691406 241.339844 86.675781 240.210938 86.65625 239.085938 L 86.660156 238.050781 C 86.640625 237.132812 86.597656 236.3125 86.386719 235.417969 C 85.519531 234.269531 85.519531 234.269531 84.476562 233.507812 L 83.824219 232.832031 C 82.335938 231.289062 80.753906 229.988281 79.023438 228.726562 L 78.363281 228.160156 L 78.363281 227.394531 L 76.835938 227.011719 C 76.800781 225.269531 76.78125 223.527344 76.761719 221.785156 L 76.734375 220.285156 L 76.722656 218.839844 L 76.703125 217.515625 C 76.851562 216.175781 77.195312 215.484375 77.980469 214.40625 C 79.726562 212.566406 81.683594 210.714844 84.015625 209.652344 C 85.46875 209.28125 86.910156 209.371094 88.398438 209.457031 C 89.425781 209.472656 89.425781 209.472656 90.328125 209.242188 L 90.972656 208.671875 C 91.148438 207.65625 91.238281 206.78125 91.257812 205.757812 L 91.292969 204.941406 C 91.320312 204.273438 91.339844 203.609375 91.355469 202.941406 C 90.265625 202.902344 89.171875 202.871094 88.082031 202.847656 L 87.15625 202.808594 C 85.414062 202.761719 85.414062 202.761719 83.789062 203.289062 C 83.367188 203.570312 82.945312 203.851562 82.523438 204.132812 C 81.101562 204.796875 79.511719 204.582031 77.980469 204.46875 L 77.980469 203.582031 C 77.976562 202.238281 77.957031 200.894531 77.933594 199.550781 L 77.9375 198.15625 C 77.894531 196.3125 77.855469 194.726562 77.089844 193.027344 C 76.703125 192.386719 76.292969 191.761719 75.863281 191.152344 C 74.382812 188.976562 74.011719 186.410156 73.777344 183.835938 C 75.253906 183.988281 76.539062 184.207031 77.886719 184.816406 C 79.074219 185.445312 79.074219 185.445312 80.273438 185.367188 L 79.476562 184.566406 C 75.992188 180.933594 75.992188 180.933594 75.40625 178.609375 C 75.117188 176.0625 75.472656 173.542969 76.480469 171.1875 C 77.882812 168.332031 79.589844 166.238281 82.183594 164.351562 C 83.667969 163.476562 85.160156 162.675781 86.769531 162.058594 L 88.296875 162.058594 C 88.617188 162.996094 88.933594 163.9375 89.253906 164.875 L 89.527344 165.6875 C 90.207031 167.703125 90.207031 167.703125 90.207031 168.554688 L 89.4375 168.820312 C 87.875 169.398438 86.582031 169.929688 85.265625 170.964844 C 84.320312 172.195312 83.777344 173.179688 83.332031 174.667969 C 83.277344 175.871094 83.382812 176.949219 83.710938 178.105469 C 84.449219 179.210938 84.449219 179.210938 85.242188 180.015625 L 85.242188 180.78125 L 86.148438 181.117188 C 87.152344 181.546875 87.152344 181.546875 87.914062 182.308594 C 88.816406 182.484375 89.726562 182.621094 90.636719 182.738281 L 92.121094 182.933594 L 93.265625 183.074219 L 93.234375 181.863281 C 93.261719 180.582031 93.382812 179.609375 93.742188 178.394531 L 94.011719 177.433594 C 94.410156 176.578125 94.410156 176.578125 95.085938 175.925781 C 96.058594 175.363281 96.921875 175.128906 98.015625 174.882812 C 99.339844 174.546875 100.171875 174.265625 101.335938 173.519531 C 102.136719 172.777344 102.136719 172.777344 102.433594 171.609375 C 102.523438 170.515625 102.582031 169.625 102.433594 168.554688 C 101.875 167.480469 101.875 167.480469 100.90625 166.644531 L 100.242188 166.285156 C 99.429688 165.835938 98.851562 165.425781 98.230469 164.734375 C 97.847656 163.355469 97.855469 162.023438 97.875 160.601562 L 97.855469 159.46875 C 97.839844 158.550781 97.839844 157.628906 97.847656 156.710938 L 96.996094 156.960938 L 95.867188 157.28125 L 94.753906 157.605469 C 93.679688 157.847656 92.828125 157.992188 91.734375 157.855469 C 90.972656 156.710938 90.972656 156.710938 90.878906 155.832031 L 90.882812 154.808594 L 90.863281 153.671875 C 90.855469 152.890625 90.855469 152.109375 90.855469 151.324219 C 90.804688 148.828125 90.375 147.097656 89.125 144.925781 C 88.160156 143.140625 88.265625 141.496094 88.296875 139.515625 L 89.539062 139.875 C 90.523438 140.152344 91.507812 140.417969 92.5 140.664062 L 92.179688 140.101562 C 91.335938 138.542969 90.691406 137.117188 90.554688 135.339844 C 90.621094 133.789062 91.039062 132.488281 91.734375 131.109375 C 93.242188 128.769531 95.195312 127.445312 97.601562 126.117188 L 98.613281 125.761719 L 100.523438 126.144531 L 101.671875 130.347656 L 100.761719 130.992188 C 99.746094 131.808594 99.746094 131.808594 99.164062 132.78125 L 98.996094 133.785156 C 99.445312 135.050781 99.445312 135.050781 100.523438 136.078125 C 101.640625 136.605469 102.765625 136.929688 103.960938 137.222656 L 105.492188 137.605469 L 105.632812 136.851562 C 105.890625 135.765625 106.175781 134.800781 106.636719 133.785156 C 107.558594 132.855469 108.597656 132.199219 109.695312 131.492188 C 110.839844 130.601562 110.839844 130.601562 111.605469 129.582031 C 111.921875 128.453125 111.921875 128.453125 111.605469 127.289062 C 111.125 126.746094 110.644531 126.207031 110.144531 125.679688 C 109.546875 124.773438 109.484375 124.019531 109.382812 122.941406 C 109.351562 122.355469 109.324219 121.765625 109.3125 121.175781 L 108.523438 121.367188 C 107.242188 121.585938 106.023438 121.582031 104.726562 121.558594 C 104.382812 120.527344 104.296875 119.929688 104.292969 118.875 C 104.21875 115.421875 104.007812 112.714844 102.464844 109.5625 C 101.828125 108.027344 101.914062 106.765625 102.050781 105.128906 L 105.492188 105.511719 L 105.039062 104.007812 C 104.746094 102.652344 104.695312 101.644531 105.0625 100.304688 C 105.589844 98.953125 106.285156 98.105469 107.355469 97.128906 C 108.464844 96.253906 109.445312 95.515625 110.839844 95.195312 C 111.730469 95.164062 112.625 95.164062 113.515625 95.195312 C 113.71875 96.339844 113.882812 97.464844 113.898438 98.632812 C 113.347656 99.613281 113.347656 99.613281 112.75 100.160156 C 112.976562 100.65625 113.207031 101.148438 113.441406 101.640625 L 113.832031 102.476562 C 114.277344 103.335938 114.277344 103.335938 115.425781 103.980469 C 116.558594 104.074219 117.660156 104.125 118.796875 104.140625 L 119.792969 104.164062 C 120.84375 104.1875 121.894531 104.203125 122.949219 104.222656 L 125.085938 104.265625 C 126.832031 104.300781 128.578125 104.335938 130.328125 104.363281 L 130.328125 99.78125 L 117.71875 99.78125 L 117.621094 93.714844 L 117.582031 91.824219 C 117.558594 89.0625 117.628906 86.660156 118.796875 84.101562 C 119.628906 82.710938 120.617188 81.632812 121.921875 80.675781 C 124.628906 79.175781 126.882812 78.714844 129.945312 78.765625 L 129.902344 77.355469 L 129.871094 75.492188 L 129.84375 74.566406 C 129.816406 72.472656 130.125 71.078125 131.089844 69.210938 C 132.367188 67.167969 134.40625 65.859375 136.441406 64.628906 M 244.570312 85.261719 L 244.1875 85.640625 C 244.148438 86.722656 244.132812 87.808594 244.140625 88.890625 L 244.136719 89.8125 C 244.136719 90.589844 244.160156 91.363281 244.1875 92.136719 L 244.570312 92.519531 C 245.46875 92.546875 246.367188 92.550781 247.269531 92.542969 L 248.761719 92.53125 L 249.917969 92.519531 C 249.9375 91.851562 249.953125 91.183594 249.964844 90.515625 L 249.992188 89.386719 C 249.917969 88.292969 249.746094 87.699219 249.15625 86.789062 C 248.027344 85.917969 247.21875 85.636719 245.8125 85.355469 Z M 127.4375 85.90625 C 126.125 86.300781 126.125 86.300781 125.40625 87.148438 C 124.714844 88.414062 124.542969 89.429688 124.546875 90.847656 L 124.542969 91.769531 L 124.59375 92.519531 L 124.976562 92.902344 C 125.804688 92.941406 126.632812 92.953125 127.460938 92.949219 L 128.835938 92.953125 L 129.945312 92.902344 L 130.328125 92.519531 C 130.355469 91.425781 130.363281 90.34375 130.351562 89.25 L 130.34375 88.316406 C 130.339844 87.550781 130.332031 86.789062 130.328125 86.023438 C 129.15625 85.667969 128.703125 85.660156 127.4375 85.90625 M 112.367188 111.242188 C 111.746094 112.484375 111.941406 113.683594 111.988281 115.0625 L 112.367188 115.445312 C 112.933594 115.480469 113.496094 115.488281 114.058594 115.488281 L 115.148438 115.488281 L 116.335938 115.480469 L 117.539062 115.480469 C 118.816406 115.476562 120.09375 115.472656 121.371094 115.46875 C 122.234375 115.464844 123.097656 115.464844 123.960938 115.464844 C 126.082031 115.457031 128.203125 115.453125 130.328125 115.445312 L 130.328125 111.242188 Z M 244.570312 111.242188 L 244.1875 111.625 C 244.046875 113.601562 244.046875 113.601562 244.570312 115.445312 L 262.144531 115.445312 L 262.527344 112.007812 L 262.144531 111.242188 C 259.648438 111.230469 257.152344 111.226562 254.65625 111.222656 C 253.808594 111.21875 252.957031 111.214844 252.109375 111.214844 C 250.890625 111.207031 249.667969 111.207031 248.453125 111.203125 L 247.292969 111.199219 L 246.226562 111.199219 L 245.28125 111.195312 Z M 244.570312 121.941406 C 243.933594 123.210938 244.132812 124.628906 244.136719 126.023438 L 244.136719 127.019531 C 244.136719 127.71875 244.136719 128.414062 244.136719 129.109375 C 244.140625 130.175781 244.136719 131.242188 244.136719 132.3125 C 244.136719 132.988281 244.136719 133.660156 244.136719 134.335938 L 244.132812 135.308594 C 244.136719 136.074219 244.160156 136.839844 244.1875 137.605469 L 244.570312 137.988281 C 245.097656 138.035156 245.625 138.054688 246.15625 138.066406 L 247.175781 138.089844 L 248.285156 138.109375 L 249.414062 138.132812 C 250.609375 138.15625 251.804688 138.179688 253 138.203125 L 255.421875 138.253906 C 257.410156 138.292969 259.394531 138.332031 261.382812 138.371094 L 261.761719 137.605469 L 260.234375 137.222656 L 260.234375 136.460938 L 259.183594 135.839844 C 258.226562 135.214844 257.632812 134.632812 257.058594 133.640625 C 256.054688 131.402344 255.996094 128.945312 256.03125 126.523438 C 256.195312 125.558594 256.453125 124.777344 256.796875 123.851562 L 256.796875 122.320312 C 252.714844 122.082031 248.660156 121.875 244.570312 121.941406 M 117.335938 122.703125 C 117.832031 124.261719 117.832031 124.261719 118.480469 125.761719 C 118.875 130.988281 118.875 130.988281 118.164062 133.285156 C 117.171875 134.984375 115.738281 136.0625 114.117188 137.136719 L 113.515625 137.605469 L 113.515625 138.371094 C 115.171875 138.378906 116.828125 138.386719 118.488281 138.390625 C 119.046875 138.394531 119.609375 138.394531 120.171875 138.398438 C 120.988281 138.402344 121.804688 138.40625 122.617188 138.40625 L 124.097656 138.414062 C 126.179688 138.359375 128.253906 138.160156 130.328125 137.988281 L 130.328125 122.320312 L 124.476562 122.296875 L 122.632812 122.289062 L 121.183594 122.285156 L 119.699219 122.277344 C 118.472656 122.265625 118.472656 122.265625 117.335938 122.703125 M 99.378906 144.863281 L 99.378906 150.214844 C 102.890625 150.558594 106.359375 150.652344 109.886719 150.648438 L 111.554688 150.648438 C 112.710938 150.648438 113.863281 150.648438 115.019531 150.644531 C 116.5 150.644531 117.980469 150.644531 119.460938 150.648438 C 120.601562 150.648438 121.746094 150.648438 122.890625 150.648438 C 123.4375 150.648438 123.984375 150.648438 124.527344 150.648438 C 125.289062 150.648438 126.046875 150.648438 126.808594 150.644531 L 128.117188 150.644531 C 129.214844 150.644531 129.214844 150.644531 130.328125 150.214844 C 130.335938 149.394531 130.34375 148.574219 130.351562 147.753906 L 130.363281 146.371094 L 130.328125 145.246094 L 129.945312 144.863281 C 128.996094 144.832031 128.046875 144.816406 127.09375 144.820312 L 126.191406 144.820312 C 125.203125 144.820312 124.210938 144.824219 123.21875 144.828125 L 121.167969 144.828125 C 119.359375 144.832031 117.554688 144.835938 115.75 144.839844 C 113.90625 144.84375 112.066406 144.84375 110.226562 144.847656 C 106.609375 144.851562 102.992188 144.855469 99.378906 144.863281 M 244.570312 144.863281 C 244.066406 145.867188 244.136719 146.636719 244.140625 147.753906 L 244.136719 148.902344 L 244.1875 149.832031 L 244.570312 150.214844 C 245.53125 150.253906 246.484375 150.265625 247.449219 150.265625 L 248.359375 150.265625 C 249.363281 150.265625 250.363281 150.265625 251.363281 150.265625 C 252.054688 150.265625 252.746094 150.265625 253.441406 150.265625 C 254.894531 150.265625 256.347656 150.265625 257.800781 150.265625 C 259.667969 150.261719 261.535156 150.261719 263.402344 150.265625 C 264.832031 150.265625 266.261719 150.265625 267.691406 150.265625 C 268.378906 150.265625 269.070312 150.265625 269.757812 150.265625 C 270.71875 150.265625 271.679688 150.265625 272.640625 150.261719 L 273.511719 150.265625 C 274.179688 150.261719 274.847656 150.242188 275.519531 150.214844 L 275.898438 149.832031 C 275.9375 149.070312 275.949219 148.304688 275.949219 147.539062 L 275.949219 146.273438 L 275.898438 145.246094 L 275.519531 144.863281 C 274.558594 144.832031 273.59375 144.816406 272.632812 144.820312 L 271.71875 144.820312 C 270.714844 144.820312 269.714844 144.824219 268.710938 144.828125 L 266.632812 144.828125 C 264.800781 144.832031 262.972656 144.835938 261.144531 144.839844 C 259.28125 144.84375 257.417969 144.84375 255.550781 144.847656 C 251.890625 144.851562 248.230469 144.855469 244.570312 144.863281 M 188.402344 155.5625 C 187.851562 155.90625 187.308594 156.265625 186.777344 156.636719 C 185.472656 157.53125 184.101562 158.320312 182.671875 159.003906 C 180.769531 160.003906 178.9375 161.085938 177.132812 162.25 C 175.636719 163.214844 174.109375 164.121094 172.546875 164.972656 C 171.355469 165.632812 170.167969 166.300781 168.988281 166.976562 L 168.289062 167.378906 C 166.871094 168.191406 165.453125 169.015625 164.046875 169.84375 C 161.785156 171.167969 159.492188 172.4375 157.195312 173.691406 L 156.347656 174.160156 L 155.597656 174.566406 L 154.78125 175.050781 L 153.601562 175.683594 L 152.488281 176.578125 C 152.132812 177.785156 152.132812 177.785156 152.171875 179.171875 L 152.15625 179.949219 C 152.140625 180.800781 152.136719 181.648438 152.144531 182.496094 C 152.136719 183.089844 152.132812 183.679688 152.128906 184.273438 C 152.121094 185.515625 152.117188 186.753906 152.125 187.996094 C 152.132812 189.582031 152.113281 191.167969 152.085938 192.753906 C 152.070312 193.976562 152.066406 195.199219 152.070312 196.421875 C 152.070312 197.003906 152.066406 197.589844 152.054688 198.175781 C 152.023438 199.9375 152.042969 201.605469 152.488281 203.324219 C 153.488281 204.480469 154.53125 205.03125 155.925781 205.617188 C 156.492188 205.917969 157.058594 206.21875 157.621094 206.523438 C 158.847656 207.199219 158.847656 207.199219 159.746094 207.144531 L 160.128906 202.558594 L 162.039062 202.175781 C 162.832031 201.875 162.832031 201.875 163.597656 201.496094 L 164.476562 201.078125 L 165.40625 200.625 L 166.378906 200.160156 C 168.644531 199.066406 170.894531 197.945312 173.136719 196.816406 C 175.078125 195.84375 177.03125 194.890625 178.996094 193.960938 L 179.84375 193.558594 C 181.816406 192.625 181.816406 192.625 182.671875 192.625 L 183.054688 198.738281 L 181.527344 199.121094 C 178.835938 199.929688 176.414062 201.238281 173.929688 202.523438 C 172.867188 203.070312 171.796875 203.601562 170.722656 204.132812 C 168.046875 205.457031 165.410156 206.832031 162.804688 208.289062 C 163.6875 209.269531 163.6875 209.269531 164.714844 210.203125 L 165.859375 210.203125 L 165.859375 210.964844 C 166.472656 211.285156 167.085938 211.605469 167.699219 211.921875 L 168.734375 212.457031 C 169.683594 212.953125 169.683594 212.953125 170.828125 212.875 L 170.828125 213.640625 C 171.566406 214.023438 172.308594 214.40625 173.046875 214.785156 L 174.296875 215.429688 C 175.382812 216.011719 175.382812 216.011719 176.558594 215.933594 L 176.558594 216.695312 L 177.859375 217.296875 C 181.195312 218.851562 184.476562 220.421875 187.613281 222.355469 C 188.363281 222.875 188.363281 222.875 189.167969 222.808594 L 189.167969 155.5625 Z M 196.042969 155.5625 C 195.761719 159.746094 195.605469 163.902344 195.613281 168.09375 L 195.609375 169.824219 C 195.605469 171.390625 195.605469 172.953125 195.605469 174.515625 C 195.605469 176.210938 195.605469 177.90625 195.601562 179.597656 C 195.601562 182.90625 195.597656 186.21875 195.597656 189.527344 C 195.597656 192.214844 195.597656 194.902344 195.597656 197.59375 C 195.59375 205.222656 195.589844 212.851562 195.59375 220.480469 L 195.59375 222.964844 C 195.589844 229.640625 195.589844 236.3125 195.582031 242.988281 C 195.578125 249.84375 195.574219 256.703125 195.574219 263.5625 C 195.574219 267.410156 195.574219 271.257812 195.570312 275.105469 C 195.566406 278.378906 195.566406 281.648438 195.566406 284.921875 C 195.570312 286.589844 195.570312 288.257812 195.566406 289.929688 C 195.5625 291.457031 195.5625 292.980469 195.566406 294.507812 C 195.566406 295.0625 195.566406 295.617188 195.566406 296.167969 C 195.5625 296.917969 195.566406 297.667969 195.566406 298.417969 L 195.566406 299.683594 C 195.660156 300.746094 195.875 301.378906 196.425781 302.285156 C 198.152344 302.292969 199.882812 302.300781 201.609375 302.304688 C 202.195312 302.304688 202.785156 302.308594 203.371094 302.3125 C 204.214844 302.316406 205.058594 302.320312 205.90625 302.320312 L 206.703125 302.328125 C 208.109375 302.347656 208.109375 302.347656 209.417969 301.902344 L 209.800781 280.121094 C 212.875 281.070312 215.363281 281.902344 218.207031 283.179688 L 222.027344 284.324219 L 222.410156 301.902344 L 237.308594 301.902344 L 237.308594 178.871094 L 236.164062 178.488281 L 236.164062 177.722656 C 235.542969 177.40625 234.921875 177.085938 234.300781 176.769531 L 233.253906 176.230469 C 232.394531 175.761719 232.394531 175.761719 231.578125 175.8125 L 231.578125 175.050781 L 230.882812 174.722656 C 227.582031 173.121094 224.410156 171.3125 221.234375 169.472656 L 220.117188 168.832031 L 219.113281 168.253906 C 218.289062 167.832031 217.582031 167.585938 216.675781 167.40625 L 216.675781 166.644531 L 215.6875 166.175781 C 211.765625 164.285156 208.007812 162.148438 204.257812 159.941406 C 201.570312 158.367188 198.84375 156.925781 196.042969 155.5625 M 244.1875 157.472656 C 244.179688 160.90625 244.171875 164.335938 244.167969 167.765625 C 244.164062 169.359375 244.164062 170.953125 244.160156 172.546875 C 244.15625 174.082031 244.152344 175.617188 244.152344 177.152344 C 244.148438 177.742188 244.148438 178.328125 244.148438 178.914062 C 244.144531 179.734375 244.144531 180.554688 244.144531 181.375 L 244.140625 182.789062 L 244.1875 183.835938 L 244.570312 184.21875 C 245.496094 184.257812 246.414062 184.273438 247.34375 184.269531 L 248.222656 184.273438 C 249.183594 184.273438 250.148438 184.269531 251.113281 184.265625 L 252.105469 184.265625 C 259.53125 184.257812 266.949219 184.066406 274.371094 183.835938 L 273.988281 181.925781 L 272.078125 181.546875 L 272.078125 180.78125 L 270.695312 180.183594 C 268.941406 179.308594 267.832031 178.183594 266.730469 176.578125 C 265.597656 174.363281 265.492188 171.992188 265.527344 169.542969 C 265.648438 167.460938 266.003906 165.71875 267.039062 163.898438 C 267.875 162.824219 267.875 162.824219 268.925781 161.75 C 269.847656 160.660156 269.847656 160.660156 269.871094 159.660156 L 269.839844 158.734375 L 269.816406 157.800781 L 269.785156 157.09375 C 266.84375 157.082031 263.902344 157.078125 260.957031 157.070312 C 259.59375 157.070312 258.226562 157.066406 256.859375 157.0625 C 255.539062 157.058594 254.21875 157.054688 252.898438 157.054688 C 252.152344 157.054688 251.40625 157.050781 250.660156 157.046875 L 248.054688 157.046875 C 246.746094 157.097656 245.480469 157.269531 244.1875 157.472656 M 124.5 157.082031 L 123.175781 157.105469 L 121.789062 157.136719 L 120.335938 157.164062 C 119.078125 157.191406 117.816406 157.214844 116.554688 157.242188 C 115.265625 157.269531 113.972656 157.296875 112.683594 157.320312 C 110.15625 157.367188 107.632812 157.421875 105.109375 157.472656 C 105.078125 158.367188 105.078125 159.257812 105.109375 160.148438 C 105.816406 161.324219 105.816406 161.324219 106.78125 162.394531 C 108.757812 164.847656 108.757812 164.847656 109.144531 166.429688 C 109.59375 169.644531 109.699219 173.128906 108.546875 176.195312 C 107.640625 177.246094 107.640625 177.246094 106.636719 178.105469 L 105.957031 178.855469 C 104.660156 180.046875 103.113281 180.597656 101.511719 181.292969 L 100.523438 181.925781 C 100.125 182.898438 100.125 182.898438 100.140625 183.835938 L 100.523438 184.21875 C 101.453125 184.257812 102.375 184.269531 103.304688 184.261719 L 104.183594 184.261719 C 105.148438 184.261719 106.113281 184.261719 107.082031 184.257812 L 109.082031 184.253906 C 110.84375 184.253906 112.605469 184.25 114.367188 184.246094 C 116.476562 184.242188 118.585938 184.238281 120.699219 184.238281 C 123.90625 184.234375 127.117188 184.226562 130.328125 184.21875 L 130.328125 157.472656 C 127.390625 157.144531 127.390625 157.144531 124.5 157.082031 M 86.769531 191.097656 C 86.164062 194.511719 86.164062 194.511719 86.769531 196.0625 C 91.964844 196.421875 97.136719 196.496094 102.34375 196.484375 L 104.78125 196.480469 C 106.894531 196.480469 109.007812 196.476562 111.121094 196.472656 C 113.289062 196.46875 115.457031 196.464844 117.625 196.464844 C 121.859375 196.460938 126.09375 196.453125 130.328125 196.445312 L 130.328125 191.097656 Z M 244.570312 191.097656 L 244.1875 191.480469 C 244.148438 192.242188 244.136719 193.007812 244.140625 193.773438 L 244.136719 195.039062 L 244.1875 196.0625 L 244.570312 196.445312 C 245.140625 196.484375 245.710938 196.492188 246.285156 196.492188 L 247.40625 196.492188 L 248.644531 196.488281 L 249.945312 196.488281 C 251.371094 196.488281 252.792969 196.488281 254.21875 196.484375 L 257.171875 196.480469 C 259.503906 196.480469 261.835938 196.476562 264.167969 196.472656 C 266.820312 196.46875 269.472656 196.46875 272.128906 196.464844 C 277.589844 196.460938 283.046875 196.453125 288.507812 196.445312 L 288.507812 191.097656 C 282.785156 191.089844 277.0625 191.082031 271.34375 191.078125 C 268.683594 191.074219 266.027344 191.074219 263.371094 191.070312 C 260.808594 191.066406 258.246094 191.0625 255.6875 191.0625 C 254.707031 191.058594 253.726562 191.058594 252.746094 191.058594 C 251.378906 191.054688 250.011719 191.054688 248.644531 191.054688 L 247.40625 191.050781 L 245.300781 191.050781 Z M 98.230469 203.707031 L 97.847656 211.730469 L 97.085938 211.730469 L 96.988281 212.445312 L 96.703125 213.257812 C 96.195312 213.519531 95.6875 213.773438 95.175781 214.023438 L 94.792969 214.808594 L 94.410156 215.550781 C 93.597656 215.835938 93.597656 215.835938 92.882812 215.933594 L 92.882812 216.695312 L 91.734375 216.316406 C 90.796875 216.25 89.859375 216.210938 88.917969 216.195312 L 87.40625 216.152344 C 86 216.222656 86 216.222656 84.898438 216.941406 C 84.023438 217.796875 84.023438 217.796875 83.742188 218.96875 L 83.59375 220.183594 L 83.429688 221.402344 C 83.316406 222.382812 83.316406 222.382812 83.332031 223.191406 C 83.820312 223.703125 83.820312 223.703125 84.476562 224.21875 C 85.792969 225.308594 87.070312 226.433594 88.335938 227.578125 C 89.058594 228.15625 89.753906 228.542969 90.589844 228.921875 L 90.589844 229.6875 C 91.082031 230.085938 91.585938 230.46875 92.09375 230.839844 C 92.941406 231.566406 92.941406 231.566406 93.644531 232.363281 C 94.074219 233.601562 94.058594 234.765625 94.027344 236.066406 L 94.042969 237.164062 C 94.050781 238.355469 94.039062 239.542969 94.027344 240.730469 C 94.03125 241.558594 94.035156 242.386719 94.042969 243.210938 C 94.050781 245.382812 94.046875 247.554688 94.035156 249.726562 C 94.023438 251.945312 94.035156 254.164062 94.042969 256.378906 C 94.054688 260.726562 94.046875 265.078125 94.027344 269.425781 L 94.746094 269.570312 L 95.683594 269.769531 L 96.617188 269.964844 C 97.707031 270.253906 98.40625 270.722656 99.257812 271.453125 L 100.121094 272.175781 L 100.90625 272.863281 C 102.5 274.257812 104.0625 275.308594 105.929688 276.296875 C 106.636719 276.683594 106.636719 276.683594 107.019531 277.066406 C 107.390625 279.742188 107.511719 282.414062 107.617188 285.113281 L 107.667969 286.335938 C 107.707031 287.320312 107.746094 288.308594 107.785156 289.292969 L 114.277344 289.292969 L 114.320312 286.851562 C 114.339844 286.066406 114.359375 285.285156 114.378906 284.5 C 114.390625 283.957031 114.402344 283.414062 114.410156 282.871094 C 114.425781 282.089844 114.445312 281.308594 114.464844 280.523438 L 114.496094 279.097656 C 114.675781 277.726562 114.988281 277.023438 115.808594 275.917969 C 116.410156 275.292969 116.410156 275.292969 117.050781 274.757812 L 117.753906 274.160156 L 118.480469 273.554688 L 119.210938 272.9375 C 120.21875 272.089844 121.203125 271.304688 122.304688 270.570312 C 123.167969 270.449219 123.167969 270.449219 124.171875 270.414062 L 125.257812 270.367188 L 126.386719 270.332031 L 127.53125 270.289062 C 128.460938 270.25 129.394531 270.21875 130.328125 270.1875 C 130.335938 261.527344 130.34375 252.863281 130.347656 244.203125 C 130.347656 240.183594 130.351562 236.160156 130.355469 232.140625 C 130.359375 228.636719 130.363281 225.132812 130.363281 221.628906 C 130.363281 219.769531 130.363281 217.914062 130.367188 216.058594 C 130.371094 214.3125 130.371094 212.570312 130.371094 210.824219 C 130.371094 210.179688 130.371094 209.539062 130.371094 208.894531 C 130.375 208.023438 130.375 207.148438 130.371094 206.277344 L 130.375 204.792969 L 130.328125 203.707031 L 129.945312 203.324219 C 128.984375 203.285156 128.035156 203.273438 127.070312 203.273438 L 126.160156 203.273438 C 125.160156 203.269531 124.164062 203.273438 123.164062 203.273438 L 121.089844 203.273438 C 119.636719 203.273438 118.1875 203.273438 116.734375 203.273438 C 114.871094 203.277344 113.007812 203.273438 111.144531 203.273438 C 109.714844 203.269531 108.285156 203.269531 106.859375 203.273438 C 106.171875 203.273438 105.484375 203.273438 104.796875 203.273438 C 103.835938 203.269531 102.878906 203.273438 101.917969 203.273438 L 101.050781 203.273438 C 99.59375 203.253906 99.59375 203.253906 98.230469 203.707031 M 244.953125 203.324219 L 244.570312 203.707031 C 244.414062 205.433594 244.402344 207.171875 244.355469 208.90625 L 244.332031 209.78125 C 244.046875 220.496094 244.144531 231.21875 244.160156 241.9375 C 244.164062 245.023438 244.167969 248.113281 244.167969 251.199219 C 244.171875 257.53125 244.179688 263.859375 244.1875 270.1875 L 244.886719 270.199219 C 245.941406 270.21875 246.996094 270.25 248.050781 270.28125 L 249.152344 270.296875 C 251.800781 270.390625 251.800781 270.390625 252.96875 270.90625 C 254.148438 271.664062 255.066406 272.621094 256.03125 273.628906 L 256.796875 273.628906 L 256.796875 274.390625 C 257.296875 274.664062 257.796875 274.929688 258.300781 275.195312 C 259.148438 275.808594 259.148438 275.808594 259.851562 276.683594 C 260.292969 278.757812 260.246094 280.804688 260.210938 282.917969 C 260.210938 283.769531 260.214844 284.621094 260.21875 285.476562 C 260.222656 286.242188 260.214844 287.011719 260.203125 287.78125 L 260.234375 288.910156 L 260.617188 289.292969 C 261.710938 289.320312 262.792969 289.328125 263.886719 289.316406 L 264.820312 289.3125 C 265.585938 289.304688 266.347656 289.300781 267.113281 289.292969 L 267.140625 288.292969 C 267.179688 287.070312 267.214844 285.84375 267.253906 284.621094 C 267.269531 284.09375 267.289062 283.5625 267.300781 283.03125 C 267.324219 282.269531 267.347656 281.507812 267.375 280.746094 L 267.414062 279.359375 C 267.496094 278.210938 267.496094 278.210938 267.875 277.066406 C 268.75 276.441406 269.640625 275.84375 270.550781 275.273438 C 272.628906 273.945312 274.457031 272.597656 276.160156 270.796875 C 277.097656 270.152344 277.71875 269.996094 278.820312 269.769531 C 279.132812 269.703125 279.445312 269.636719 279.765625 269.570312 L 280.484375 269.425781 L 280.488281 268.046875 C 280.492188 263.761719 280.507812 259.480469 280.535156 255.195312 C 280.546875 252.992188 280.558594 250.789062 280.558594 248.589844 C 280.5625 246.464844 280.570312 244.335938 280.589844 242.210938 C 280.59375 241.402344 280.597656 240.589844 280.59375 239.78125 C 280.59375 238.644531 280.601562 237.507812 280.617188 236.371094 L 280.605469 235.355469 C 280.648438 233.117188 280.648438 233.117188 281.28125 232.035156 C 282.15625 230.96875 283.175781 230.042969 284.234375 229.164062 C 285.613281 227.988281 286.886719 226.746094 288.144531 225.445312 C 288.890625 224.71875 288.890625 224.71875 289.921875 224.019531 L 290.800781 223.191406 C 291.117188 222.011719 291.117188 222.011719 291.0625 220.734375 L 291.09375 219.445312 C 290.882812 218.148438 290.882812 218.148438 289.851562 217.121094 C 289.125 216.589844 288.613281 216.332031 287.726562 216.175781 C 286.851562 216.136719 285.992188 216.148438 285.117188 216.171875 C 282.035156 216.128906 282.035156 216.128906 280.558594 215.414062 C 279.003906 214.085938 277.863281 212.460938 277.046875 210.582031 C 276.773438 209.324219 276.664062 208.070312 276.570312 206.785156 L 276.480469 205.773438 C 276.410156 204.957031 276.34375 204.140625 276.28125 203.324219 C 272.203125 203.316406 268.125 203.308594 264.046875 203.304688 C 262.152344 203.300781 260.261719 203.300781 258.367188 203.296875 C 256.539062 203.292969 254.714844 203.289062 252.890625 203.289062 C 252.191406 203.285156 251.492188 203.285156 250.792969 203.285156 C 249.820312 203.28125 248.84375 203.28125 247.871094 203.28125 L 246.988281 203.277344 C 246.308594 203.277344 245.628906 203.296875 244.953125 203.324219 M 144.082031 211.347656 C 143.410156 211.714844 143.410156 211.714844 142.792969 212.230469 C 141.621094 213.121094 140.429688 213.746094 139.113281 214.40625 C 138.050781 214.957031 138.050781 214.957031 137.203125 215.933594 C 136.917969 217.074219 136.949219 218.191406 136.96875 219.359375 L 136.960938 220.421875 C 136.957031 221.597656 136.964844 222.773438 136.976562 223.949219 C 136.964844 227.082031 136.96875 230.214844 136.984375 233.34375 C 136.996094 235.738281 136.992188 238.128906 136.992188 240.523438 C 136.996094 244.539062 137.003906 248.554688 137.019531 252.574219 C 137.035156 257.222656 137.042969 261.871094 137.042969 266.523438 C 137.042969 271.464844 137.050781 276.410156 137.058594 281.351562 C 137.0625 282.78125 137.0625 284.207031 137.066406 285.632812 C 137.066406 287.875 137.074219 290.113281 137.082031 292.355469 C 137.085938 293.179688 137.085938 294.003906 137.085938 294.828125 C 137.089844 295.945312 137.09375 297.066406 137.097656 298.1875 L 137.097656 299.1875 C 137.101562 299.964844 137.148438 300.742188 137.203125 301.519531 L 137.96875 302.285156 C 139.058594 302.359375 140.101562 302.390625 141.191406 302.378906 L 142.089844 302.386719 C 142.882812 302.386719 143.671875 302.335938 144.464844 302.285156 L 145.609375 301.519531 C 145.722656 300.324219 145.757812 299.203125 145.746094 298.003906 L 145.75 296.886719 C 145.753906 295.640625 145.746094 294.398438 145.738281 293.15625 L 145.738281 290.488281 C 145.742188 288.070312 145.734375 285.652344 145.726562 283.234375 C 145.71875 280.964844 145.71875 278.695312 145.71875 276.425781 C 145.714844 271.929688 145.707031 267.433594 145.695312 262.9375 C 145.679688 256.945312 145.671875 250.957031 145.667969 244.964844 C 145.65625 233.757812 145.636719 222.554688 145.609375 211.347656 Z M 152.488281 211.347656 C 152.472656 224.457031 152.464844 237.5625 152.464844 250.667969 C 152.464844 255.039062 152.460938 259.410156 152.457031 263.78125 C 152.453125 268.261719 152.453125 272.742188 152.453125 277.222656 C 152.453125 279.742188 152.449219 282.261719 152.445312 284.78125 C 152.445312 287.148438 152.441406 289.515625 152.445312 291.882812 C 152.445312 292.753906 152.441406 293.625 152.441406 294.496094 C 152.441406 295.679688 152.441406 296.867188 152.441406 298.050781 L 152.4375 299.109375 C 152.441406 299.914062 152.460938 300.714844 152.488281 301.519531 L 152.871094 301.902344 C 154.8125 302.253906 156.71875 302.339844 158.6875 302.332031 L 159.601562 302.335938 C 160.59375 302.335938 161.585938 302.335938 162.578125 302.335938 L 164.65625 302.335938 C 166.105469 302.335938 167.554688 302.335938 169.003906 302.332031 C 170.859375 302.332031 172.714844 302.332031 174.570312 302.335938 C 176 302.335938 177.429688 302.335938 178.859375 302.335938 C 179.542969 302.335938 180.226562 302.335938 180.910156 302.335938 C 181.867188 302.335938 182.824219 302.335938 183.78125 302.332031 L 184.628906 302.335938 C 186.1875 302.328125 187.636719 302.171875 189.167969 301.902344 C 189.246094 292.675781 189.308594 283.449219 189.34375 274.222656 C 189.363281 269.9375 189.386719 265.652344 189.425781 261.371094 C 189.460938 257.636719 189.484375 253.902344 189.492188 250.167969 C 189.496094 248.191406 189.507812 246.214844 189.53125 244.238281 C 189.554688 242.378906 189.5625 240.515625 189.554688 238.65625 C 189.558594 237.972656 189.5625 237.289062 189.578125 236.605469 C 189.613281 234.628906 189.617188 232.765625 189.167969 230.835938 C 188.171875 229.636719 187.167969 229.09375 185.726562 228.542969 L 184.59375 227.898438 L 183.597656 227.390625 L 182.457031 226.808594 L 181.261719 226.203125 C 178.113281 224.585938 174.980469 222.941406 171.878906 221.234375 C 169.023438 219.667969 166.160156 218.121094 163.28125 216.601562 L 162.238281 216.046875 L 161.28125 215.542969 L 160.4375 215.097656 C 159.757812 214.734375 159.757812 214.734375 158.984375 214.785156 L 158.984375 214.023438 C 158.042969 213.574219 157.105469 213.128906 156.164062 212.683594 L 155.355469 212.296875 C 153.980469 211.59375 153.980469 211.59375 152.488281 211.347656 M 89.0625 276.683594 C 88.503906 277.796875 88.628906 278.777344 88.628906 280.015625 L 88.628906 280.78125 C 88.628906 281.316406 88.628906 281.847656 88.628906 282.382812 C 88.632812 283.203125 88.628906 284.019531 88.628906 284.839844 C 88.628906 285.359375 88.628906 285.875 88.628906 286.394531 L 88.628906 287.828125 L 88.679688 288.910156 L 89.0625 289.292969 C 89.875 289.332031 90.691406 289.34375 91.507812 289.34375 L 93.804688 289.34375 C 94.597656 289.339844 95.394531 289.34375 96.1875 289.34375 L 99.085938 289.34375 L 100.140625 289.292969 L 100.523438 288.910156 C 100.554688 288.371094 100.566406 287.828125 100.5625 287.285156 L 100.558594 286.296875 L 100.546875 285.257812 L 100.542969 284.210938 C 100.539062 283.359375 100.53125 282.503906 100.523438 281.652344 L 99.378906 281.269531 L 99.378906 280.503906 L 98.542969 280.003906 C 97.039062 279.101562 95.941406 277.921875 94.839844 276.566406 L 94.027344 275.917969 C 92.203125 275.71875 90.746094 275.960938 89.0625 276.683594 M 278.484375 277.980469 C 278.074219 278.351562 277.679688 278.730469 277.292969 279.125 C 276.664062 279.742188 276.664062 279.742188 275.457031 280.519531 C 274.828125 281 274.828125 281 274.371094 281.652344 C 274.089844 282.976562 274.152344 284.246094 274.230469 285.589844 L 274.261719 286.667969 C 274.285156 287.542969 274.324219 288.417969 274.371094 289.292969 C 275.9375 289.320312 277.5 289.34375 279.0625 289.355469 C 279.597656 289.359375 280.128906 289.367188 280.660156 289.378906 C 281.425781 289.394531 282.1875 289.398438 282.953125 289.40625 L 284.347656 289.421875 L 285.453125 289.292969 L 286.214844 288.144531 C 286.28125 287.058594 286.304688 286.011719 286.289062 284.921875 L 286.28125 283.996094 C 286.25 281.550781 286.101562 279.113281 285.835938 276.683594 C 282.679688 276.023438 281.011719 275.902344 278.484375 277.980469 M 122.921875 278.234375 C 122.035156 279.152344 122.035156 279.152344 121.539062 280.503906 C 121.140625 283.445312 121.386719 286.332031 121.539062 289.292969 L 130.328125 289.292969 L 130.328125 277.066406 C 125.359375 276.625 125.359375 276.625 122.921875 278.234375 M 244.570312 277.066406 C 244.070312 278.066406 244.136719 278.808594 244.136719 279.925781 L 244.136719 281.199219 L 244.140625 282.535156 L 244.136719 283.855469 L 244.136719 286.300781 C 244.167969 287.53125 244.167969 287.53125 244.570312 289.292969 L 252.976562 289.292969 C 253.046875 287.820312 253.101562 286.347656 253.140625 284.875 L 253.210938 283.617188 C 253.234375 282.398438 253.214844 281.320312 252.976562 280.121094 C 252.246094 278.992188 251.421875 278.1875 250.300781 277.449219 C 248.476562 276.851562 246.480469 277.027344 244.570312 277.066406 M 307.613281 277.832031 L 307.039062 278.640625 C 305.703125 280.179688 304.097656 281.5 302.265625 282.414062 L 302.265625 288.910156 L 305.296875 288.933594 L 306.253906 288.945312 C 306.960938 288.949219 307.667969 288.929688 308.378906 288.910156 L 308.757812 288.527344 C 308.792969 287.765625 308.800781 287 308.796875 286.234375 L 308.792969 284.828125 L 308.785156 283.347656 L 308.777344 281.859375 C 308.773438 280.644531 308.765625 279.429688 308.757812 278.210938 Z M 66.519531 278.210938 C 66.507812 279.730469 66.503906 281.246094 66.496094 282.761719 C 66.496094 283.277344 66.492188 283.792969 66.488281 284.3125 C 66.484375 285.050781 66.484375 285.792969 66.480469 286.53125 L 66.476562 287.886719 L 66.519531 288.910156 L 66.902344 289.292969 C 67.800781 289.257812 68.699219 289.199219 69.597656 289.125 L 71.09375 289.007812 L 72.25 288.910156 C 72.628906 285.652344 72.628906 285.652344 72.25 282.414062 C 70.734375 280.402344 68.742188 279.308594 66.519531 278.210938 M 90.589844 296.550781 C 89.695312 297.550781 89.695312 297.550781 89.085938 298.820312 L 88.40625 300.074219 C 87.863281 301.058594 87.863281 301.058594 87.914062 301.902344 L 130.328125 301.902344 L 130.328125 296.550781 C 129.042969 295.910156 127.597656 296.117188 126.1875 296.121094 L 125.125 296.117188 C 123.964844 296.117188 122.804688 296.117188 121.640625 296.121094 L 119.222656 296.117188 C 117.53125 296.117188 115.835938 296.117188 114.144531 296.121094 C 111.976562 296.121094 109.808594 296.121094 107.644531 296.117188 C 105.976562 296.117188 104.308594 296.117188 102.640625 296.117188 C 101.84375 296.117188 101.042969 296.117188 100.246094 296.117188 C 99.125 296.117188 98.007812 296.117188 96.886719 296.121094 L 95.890625 296.117188 C 94.09375 296.125 92.355469 296.171875 90.589844 296.550781 M 244.570312 296.550781 C 244.558594 297.4375 244.550781 298.320312 244.546875 299.203125 L 244.53125 300.695312 L 244.570312 301.902344 L 244.953125 302.285156 C 245.664062 302.320312 246.382812 302.332031 247.097656 302.332031 L 248.496094 302.335938 L 250.039062 302.335938 C 250.570312 302.335938 251.101562 302.335938 251.632812 302.335938 C 253.058594 302.335938 254.484375 302.335938 255.910156 302.332031 C 256.792969 302.332031 257.671875 302.332031 258.554688 302.328125 C 267.777344 302.324219 276.996094 302.214844 286.214844 301.902344 C 285.953125 300.414062 285.582031 299.433594 284.734375 298.175781 L 284.140625 297.273438 L 283.542969 296.550781 C 282.292969 296.136719 281.382812 296.121094 280.070312 296.121094 L 278.609375 296.117188 L 277.015625 296.121094 L 275.359375 296.117188 C 274.191406 296.117188 273.027344 296.117188 271.859375 296.121094 C 270.402344 296.121094 268.945312 296.121094 267.488281 296.117188 C 259.847656 296.109375 252.207031 296.253906 244.570312 296.550781 " fill-opacity="1" fill-rule="nonzero"/><path fill="#f0a62f" d="M 187.136719 108.066406 L 188.453125 108.074219 C 196.667969 108.191406 204.28125 110.441406 211.363281 114.613281 C 213.246094 115.773438 214.976562 117.089844 216.675781 118.5 L 217.699219 119.347656 C 222.621094 123.597656 226.347656 129.171875 228.878906 135.144531 L 229.191406 135.867188 C 231.308594 141.15625 231.347656 146.507812 231.269531 152.101562 C 231.261719 152.8125 231.257812 153.519531 231.253906 154.230469 C 231.238281 155.949219 231.21875 157.667969 231.195312 159.382812 C 229.535156 159.175781 228.296875 158.78125 226.828125 157.984375 L 225.636719 157.339844 C 225.21875 157.109375 224.796875 156.875 224.367188 156.636719 L 223.03125 155.910156 C 219.375 153.910156 215.769531 151.816406 212.179688 149.699219 C 209.097656 147.886719 205.996094 146.113281 202.886719 144.347656 C 200.960938 143.253906 199.039062 142.160156 197.132812 141.027344 L 196.277344 140.523438 C 195.777344 140.230469 195.277344 139.933594 194.785156 139.628906 C 194.070312 139.195312 194.070312 139.195312 192.988281 138.75 C 191.445312 138.90625 190.339844 139.472656 189.015625 140.25 L 187.804688 140.953125 L 186.515625 141.714844 C 186.070312 141.976562 185.621094 142.238281 185.171875 142.5 C 183.828125 143.285156 182.484375 144.074219 181.144531 144.863281 L 178.984375 146.136719 C 176.496094 147.601562 174.011719 149.074219 171.53125 150.550781 C 165.59375 154.082031 159.628906 157.570312 153.640625 161.015625 C 151.835938 162.050781 150.035156 163.09375 148.238281 164.136719 L 147.304688 164.675781 L 145.226562 165.878906 C 144.464844 165.117188 144.464844 165.117188 144.273438 164.402344 C 142.796875 154.636719 142.054688 144.140625 145.730469 134.761719 C 146.058594 134.050781 146.402344 133.339844 146.757812 132.636719 L 147.378906 131.378906 C 148.722656 128.773438 150.195312 126.453125 152.105469 124.234375 L 152.902344 123.292969 C 157.878906 117.601562 163.839844 113.433594 170.988281 110.914062 C 171.972656 110.589844 172.960938 110.277344 173.957031 109.976562 L 174.875 109.695312 C 178.933594 108.519531 182.917969 108.042969 187.136719 108.066406 M 153.632812 65.390625 C 155.335938 65.699219 156.375 66.585938 157.695312 67.65625 C 160.570312 70.171875 162.5625 72.902344 163.949219 76.472656 C 165.386719 81.0625 165.117188 84.988281 164.117188 89.628906 C 163.34375 93.351562 163.101562 96.746094 164.285156 100.398438 C 164.652344 101.394531 165.011719 102.3125 165.550781 103.226562 C 165.859375 103.980469 165.859375 103.980469 165.902344 104.929688 C 165.476562 105.894531 165.476562 105.894531 164.910156 106.3125 C 164.117188 106.746094 163.3125 107.132812 162.492188 107.515625 C 159.117188 109.191406 156.226562 111.160156 153.390625 113.65625 L 152.488281 114.296875 L 151.339844 113.917969 C 150.960938 113.066406 150.625 112.199219 150.339844 111.3125 L 149.84375 109.875 C 149.707031 109.441406 149.570312 109.011719 149.429688 108.566406 L 149.191406 107.816406 C 148.515625 104.144531 148.851562 100.316406 150.007812 96.789062 C 150.902344 94.332031 152.148438 92.0625 153.402344 89.773438 C 155.992188 85.019531 156.875 80.636719 156.800781 75.28125 C 156.660156 71.6875 155.347656 68.511719 153.632812 65.390625 M 192.605469 59.660156 L 193.371094 59.660156 C 195.722656 63.910156 197.425781 67.746094 197.621094 72.695312 C 197.441406 76.996094 195.832031 80.664062 193.582031 84.253906 C 192.988281 85.171875 192.386719 86.089844 191.78125 87 C 189.917969 89.855469 188.507812 92.65625 188.246094 96.113281 C 188.214844 96.691406 188.1875 97.265625 188.164062 97.84375 L 188.121094 98.746094 C 188.085938 99.472656 188.050781 100.199219 188.019531 100.925781 L 186.867188 100.957031 C 182.691406 101.109375 178.730469 101.769531 174.652344 102.667969 C 173.761719 102.863281 172.871094 103.042969 171.972656 103.21875 C 171.257812 101.714844 171.132812 100.621094 171.257812 98.96875 C 171.628906 95.207031 172.898438 92.121094 174.988281 88.988281 C 177.320312 85.9375 180.222656 83.515625 183.195312 81.121094 C 186.738281 78.203125 189.367188 74.9375 191.210938 70.703125 C 192.246094 67.945312 192.664062 65.546875 192.628906 62.597656 L 192.625 61.738281 C 192.621094 61.046875 192.613281 60.355469 192.605469 59.660156 M 229.667969 70.742188 L 230.433594 70.742188 C 230.457031 72.117188 230.46875 73.496094 230.480469 74.871094 L 230.5 76.035156 C 230.523438 79.488281 230.320312 82.992188 228.613281 86.070312 C 226.78125 88.851562 224.4375 90.714844 221.691406 92.542969 C 215.804688 96.34375 215.804688 96.34375 211.640625 101.828125 C 211.382812 102.40625 211.132812 102.984375 210.890625 103.570312 C 210.5625 104.367188 210.1875 105.125 209.800781 105.894531 L 209.1875 105.671875 C 204.367188 103.933594 199.566406 102.269531 194.515625 101.308594 C 194.644531 99.277344 195.167969 97.832031 196.207031 96.085938 C 198.089844 93.296875 200.300781 91.011719 203.304688 89.464844 C 206.054688 88.277344 208.886719 87.339844 211.730469 86.414062 L 212.953125 86.015625 C 213.746094 85.757812 214.539062 85.503906 215.335938 85.253906 C 219.519531 83.898438 222.820312 82 225.847656 78.765625 C 227.683594 76.328125 228.734375 73.625 229.667969 70.742188 " fill-opacity="1" fill-rule="nonzero"/><path fill="#132d5f" d="M 202.539062 171.609375 C 206.367188 172.886719 206.367188 172.886719 207.675781 173.6875 C 209.226562 174.59375 210.808594 175.257812 212.484375 175.890625 C 213.238281 176.195312 213.238281 176.195312 213.621094 176.578125 C 213.65625 177.117188 213.664062 177.660156 213.664062 178.199219 L 213.664062 179.242188 L 213.65625 180.375 L 213.65625 181.53125 C 213.652344 182.753906 213.648438 183.976562 213.644531 185.199219 C 213.644531 186.027344 213.640625 186.851562 213.640625 187.679688 C 213.636719 189.710938 213.628906 191.742188 213.621094 193.773438 C 212.152344 193.527344 210.886719 193.09375 209.519531 192.515625 L 208.402344 192.050781 L 207.003906 191.457031 C 205.53125 190.832031 204.058594 190.210938 202.539062 189.570312 Z M 202.539062 251.464844 C 205.902344 251.886719 205.902344 251.886719 207.480469 252.628906 C 208.535156 253.117188 209.609375 253.554688 210.683594 253.996094 C 212.765625 254.859375 212.765625 254.859375 213.621094 255.289062 L 213.621094 272.480469 C 211.039062 272.050781 211.039062 272.050781 209.859375 271.601562 L 209.085938 271.304688 L 208.296875 271 L 207.511719 270.703125 C 205.832031 270.0625 204.195312 269.371094 202.539062 268.660156 Z M 202.539062 225.101562 C 206.207031 225.917969 206.207031 225.917969 208.222656 227.007812 C 209.464844 227.601562 210.765625 227.945312 212.089844 228.308594 C 212.855469 228.542969 212.855469 228.542969 213.238281 228.921875 C 213.746094 232.492188 213.664062 236.070312 213.644531 239.667969 C 213.644531 240.296875 213.640625 240.921875 213.640625 241.550781 C 213.636719 243.074219 213.628906 244.59375 213.621094 246.117188 C 210.183594 245.351562 210.183594 245.351562 202.539062 242.296875 Z M 202.539062 198.355469 L 204.195312 198.902344 L 205.128906 199.210938 C 206.027344 199.523438 206.910156 199.882812 207.769531 200.292969 C 209.050781 200.878906 210.363281 201.378906 211.710938 201.796875 L 211.710938 202.558594 L 213.238281 202.558594 L 213.621094 219.753906 C 210.179688 219.324219 210.179688 219.324219 208.605469 218.679688 L 207.597656 218.269531 C 207.261719 218.128906 206.921875 217.988281 206.578125 217.84375 L 205.523438 217.417969 C 202.984375 216.378906 202.984375 216.378906 202.539062 215.933594 C 202.507812 215.382812 202.492188 214.828125 202.496094 214.277344 L 202.496094 213.210938 L 202.503906 212.050781 L 202.503906 210.871094 C 202.507812 209.621094 202.511719 208.371094 202.515625 207.121094 C 202.519531 206.277344 202.519531 205.429688 202.523438 204.585938 C 202.527344 202.507812 202.53125 200.433594 202.539062 198.355469 M 219.351562 179.253906 C 225.082031 181.546875 225.082031 181.546875 230.050781 184.21875 L 230.050781 201.03125 C 227.589844 200.292969 225.453125 199.613281 223.195312 198.5 C 221.308594 197.582031 221.308594 197.582031 219.351562 196.828125 Z M 219.351562 231.597656 C 219.90625 231.71875 220.457031 231.839844 221.011719 231.957031 L 221.945312 232.160156 C 224.792969 232.835938 227.480469 234.515625 230.050781 235.800781 L 230.050781 252.613281 C 227.535156 251.859375 225.167969 251.09375 222.765625 250.082031 L 221.890625 249.71875 C 219.789062 248.84375 219.789062 248.84375 219.351562 248.410156 C 219.320312 247.882812 219.304688 247.351562 219.308594 246.824219 L 219.308594 245.804688 L 219.3125 244.695312 L 219.316406 243.566406 C 219.316406 242.371094 219.324219 241.175781 219.328125 239.980469 C 219.328125 239.171875 219.332031 238.363281 219.332031 237.554688 C 219.335938 235.570312 219.34375 233.582031 219.351562 231.597656 M 219.351562 205.617188 C 219.894531 205.792969 220.433594 205.972656 220.976562 206.152344 L 221.886719 206.453125 C 223.203125 206.902344 224.488281 207.410156 225.777344 207.933594 L 226.519531 208.230469 C 227.71875 208.710938 228.894531 209.242188 230.050781 209.820312 L 230.050781 226.632812 C 228.507812 226.324219 227.382812 225.976562 225.96875 225.367188 C 224.140625 224.585938 222.296875 223.835938 220.445312 223.113281 C 219.734375 222.808594 219.734375 222.808594 219.351562 222.429688 C 219.320312 221.898438 219.304688 221.371094 219.308594 220.839844 L 219.308594 219.820312 L 219.3125 218.714844 L 219.316406 217.585938 C 219.316406 216.390625 219.324219 215.195312 219.328125 214 C 219.328125 213.191406 219.332031 212.382812 219.332031 211.574219 C 219.335938 209.589844 219.34375 207.601562 219.351562 205.617188 M 219.351562 257.578125 C 221.082031 257.925781 222.632812 258.433594 224.269531 259.058594 L 225.0625 259.355469 C 226.746094 259.996094 228.386719 260.6875 230.050781 261.402344 L 230.050781 277.832031 L 229.285156 278.210938 C 228.289062 277.90625 228.289062 277.90625 227.039062 277.414062 L 225.820312 276.941406 L 224.269531 276.324219 L 219.351562 274.390625 Z M 219.351562 257.578125 " fill-opacity="1" fill-rule="nonzero"/><path fill="#f0a62f" d="M 230.8125 101.691406 C 230.824219 104.050781 230.832031 106.410156 230.835938 108.765625 C 230.835938 109.570312 230.839844 110.371094 230.84375 111.175781 C 230.847656 112.328125 230.851562 113.484375 230.851562 114.636719 L 230.859375 115.722656 C 230.859375 117.335938 230.847656 118.839844 230.433594 120.410156 C 229.410156 120.730469 229.410156 120.730469 228.140625 120.792969 C 227.339844 120.128906 226.792969 119.5625 226.15625 118.765625 C 225.792969 118.335938 225.425781 117.910156 225.054688 117.488281 L 224.496094 116.835938 C 222 114.035156 219.039062 111.761719 215.914062 109.714844 C 216.070312 108.839844 216.246094 108.253906 216.769531 107.53125 C 219.753906 104.492188 223.222656 103.082031 227.277344 101.945312 C 228.496094 101.695312 229.574219 101.671875 230.8125 101.691406 " fill-opacity="1" fill-rule="nonzero"/><path fill="#132d5f" d="M 183.054688 180.398438 L 183.054688 186.894531 C 177.894531 189.628906 172.707031 192.261719 167.425781 194.753906 C 165.496094 195.671875 163.589844 196.625 161.699219 197.621094 C 160.894531 197.976562 160.894531 197.976562 159.746094 197.976562 L 159.746094 191.863281 C 164.480469 189.34375 169.246094 186.886719 174.042969 184.488281 C 175.078125 183.96875 176.109375 183.449219 177.144531 182.929688 L 179.128906 181.9375 L 180.058594 181.464844 C 182.203125 180.398438 182.203125 180.398438 183.054688 180.398438 M 183.054688 168.9375 L 183.054688 175.433594 L 180.546875 176.671875 C 177.445312 178.21875 174.371094 179.820312 171.304688 181.429688 C 169.574219 182.335938 167.84375 183.234375 166.09375 184.101562 C 164.566406 184.859375 163.089844 185.675781 161.621094 186.542969 C 160.894531 186.894531 160.894531 186.894531 159.746094 186.894531 C 159.664062 185.917969 159.601562 184.9375 159.554688 183.957031 L 159.476562 183.121094 C 159.445312 182.253906 159.476562 181.605469 159.746094 180.78125 C 160.636719 179.890625 161.675781 179.40625 162.804688 178.871094 L 163.726562 178.394531 C 164.726562 177.882812 165.734375 177.378906 166.742188 176.890625 C 169.558594 175.5 172.351562 174.082031 175.125 172.613281 C 179.089844 170.515625 179.089844 170.515625 180.785156 169.652344 L 181.632812 169.21875 C 182.289062 168.9375 182.289062 168.9375 183.054688 168.9375 M 158.21875 269.042969 C 159.761719 269.332031 161.128906 269.777344 162.589844 270.355469 C 164.175781 270.984375 165.765625 271.570312 167.386719 272.097656 C 167.816406 274.164062 167.828125 276.164062 167.820312 278.261719 L 167.816406 279.335938 C 167.800781 281.90625 167.683594 284.441406 167.386719 287 C 159.453125 284.796875 159.453125 284.796875 158.21875 283.5625 C 158.1875 282.492188 158.171875 281.417969 158.179688 280.347656 L 158.183594 279.371094 C 158.183594 278.339844 158.191406 277.308594 158.195312 276.277344 C 158.195312 275.582031 158.199219 274.882812 158.199219 274.183594 C 158.203125 272.46875 158.210938 270.757812 158.21875 269.042969 M 158.21875 224.71875 C 162.097656 226.015625 162.097656 226.015625 163.449219 226.632812 L 164.242188 226.988281 L 165.097656 227.394531 L 166.324219 227.859375 L 167.386719 228.542969 C 167.695312 229.6875 167.695312 229.6875 167.722656 231.050781 L 167.765625 232.507812 L 167.769531 233.890625 L 167.800781 234.902344 C 167.855469 237.628906 167.609375 240.34375 167.386719 243.0625 C 164.246094 242.066406 161.308594 240.859375 158.21875 239.621094 Z M 172.355469 274.007812 C 176.761719 275.332031 176.761719 275.332031 178.875 276.136719 L 180.152344 276.613281 L 181.144531 277.066406 C 181.761719 278.296875 181.570312 279.644531 181.5625 280.996094 L 181.5625 281.945312 C 181.558594 282.945312 181.554688 283.945312 181.550781 284.945312 C 181.546875 285.625 181.546875 286.300781 181.542969 286.980469 C 181.539062 288.640625 181.535156 290.304688 181.527344 291.96875 C 179.234375 291.585938 179.234375 291.585938 172.355469 288.910156 Z M 158.21875 246.882812 C 162.464844 248.15625 162.464844 248.15625 164.339844 249.1875 C 165.3125 249.660156 166.359375 249.976562 167.386719 250.320312 L 167.386719 264.839844 C 163.949219 264.074219 163.949219 264.074219 158.21875 261.402344 Z M 172.355469 252.613281 C 176.175781 253.460938 176.175781 253.460938 178.042969 254.484375 C 179.171875 255.070312 180.355469 255.550781 181.527344 256.050781 L 181.527344 270.1875 C 179.96875 269.929688 178.902344 269.742188 177.503906 269.183594 L 176.675781 268.859375 L 175.652344 268.445312 L 172.355469 267.132812 Z M 172.355469 230.832031 C 174.910156 231.261719 174.910156 231.261719 176.320312 232.125 C 177.929688 233.105469 179.277344 233.574219 181.144531 234.273438 L 181.527344 249.175781 C 178.449219 247.945312 175.382812 246.699219 172.355469 245.351562 Z M 172.355469 230.832031 " fill-opacity="1" fill-rule="nonzero"/><path fill="#f0a62f" d="M 144.082031 115.828125 L 144.84375 115.828125 C 145.421875 116.410156 145.421875 116.410156 146.039062 117.164062 L 146.664062 117.917969 L 147.136719 118.5 C 146.789062 119.496094 146.476562 120.289062 145.800781 121.105469 L 145.226562 121.558594 L 144.464844 121.558594 C 144.066406 119.628906 144.042969 117.785156 144.082031 115.828125 " fill-opacity="1" fill-rule="nonzero"/></svg>